<svg width="1103.13" height="834.15" xmlns="http://www.w3.org/2000/svg">
 <defs>
  <linearGradient y2="0" x2="0.49997" y1="1" x1="0.49997" id="ceac7335-2455-461d-90f8-41e05a42a239">
   <stop stop-opacity="0.25" stop-color="gray" offset="0"/>
   <stop stop-opacity="0.12" stop-color="gray" offset="0.54"/>
   <stop stop-opacity="0.1" stop-color="gray" offset="1"/>
  </linearGradient>
 </defs>
 <title>off road</title>
 <g>
  <title>background</title>
  <rect fill="none" id="canvas_background" height="602" width="802" y="-1" x="-1"/>
 </g>
 <g>
  <title>Layer 1</title>
  <path id="svg_1" opacity="0.1" fill="#ffeb3a" d="m52.17,330.86c16.83,46.21 52.45,86.21 108.75,105.6c117,40.27 380.86,19.5 577.78,-4.34c101.87,-12.33 191.39,-46.35 256.43,-94.26l-942.96,-7z"/>
  <path id="svg_2" opacity="0.1" fill="#ef34d0" d="m1083.85,112.16l-108,0c-5.13,0 -9.34,-2.7 -9.34,-6s4.21,-6 9.34,-6l18.68,0c-5.14,0 -9.34,-2.7 -9.34,-6s4.2,-6 9.34,-6l-13.34,0c-5.14,0 -9.34,-2.7 -9.34,-6s4.2,-6 9.34,-6l56.38,0c-12.51,-3.75 -27.1,-6.41 -44,-7.8c-153.8,-12.72 -208.71,-4.29 -228.08,4.32a287,287 0 0 1 -79,22.28c-94.92,12.58 -272.35,27.73 -433.17,-4.89c-79.93,-16.19 -139.34,11.17 -174.95,56.9l1024.25,0c-1.34,-13.3 -5.34,-25.57 -12.69,-36.31a12.65,12.65 0 0 1 -6.08,1.5z"/>
  <path id="svg_3" opacity="0.1" fill="#fc8b35" d="m42,234.32a198.53,198.53 0 0 0 4.19,80.69l948.67,22.31c26.26,-19.44 48.51,-41.16 65.91,-64.63l-1018.77,-38.37zm375.21,57.56l-18.64,0c5.13,0 9.33,2.71 9.33,6s-4.2,6 -9.33,6l-108,0c-5.14,0 -9.34,-2.7 -9.34,-6s4.2,-6 9.34,-6l18.67,0c-5.13,0 -9.34,-2.7 -9.34,-6s4.21,-6 9.34,-6l-13.42,0c-5.13,0 -9.34,-2.71 -9.34,-6s4.21,-6 9.34,-6l108.05,0c5.14,0 9.34,2.7 9.34,6s-4.2,6 -9.34,6l13.34,0c5.14,0 9.34,2.7 9.34,6s-4.2,6 -9.34,6z"/>
  <path id="svg_4" opacity="0.1" fill="#ff6363" d="m1102.66,148.42l-1035.72,16.2a190.42,190.42 0 0 0 -24.8,68.78l1042.37,0a201.59,201.59 0 0 0 15,-43.84c3.15,-14.34 4.39,-28.22 3.15,-41.14zm-850.23,53.08l-18.68,0c5.14,0 9.34,2.71 9.34,6s-4.2,6 -9.34,6l-108,0c-5.14,0 -9.34,-2.7 -9.34,-6s4.2,-6 9.34,-6l18.68,0c-5.14,0 -9.34,-2.7 -9.34,-6s4.2,-6 9.34,-6l-13.39,0c-5.14,0 -9.34,-2.71 -9.34,-6s4.2,-6 9.34,-6l108,0c5.13,0 9.33,2.7 9.33,6s-4.2,6 -9.33,6l13.34,0c5.13,0 9.33,2.7 9.33,6s-4.14,6 -9.28,6z"/>
  <path id="svg_6" fill="#535f89" d="m591.57,628.15a14.53,14.53 0 0 1 -17.83,0c-2.49,-16.43 3.83,-48.72 5.32,-56l0.31,-1.46l7.2,0a5,5 0 0 1 1.11,1.67c4.89,10.53 3.89,55.79 3.89,55.79z"/>
  <path id="svg_7" opacity="0.1" d="m585.06,564.07l0,6.63l-3,0l0,-6.63a8.72,8.72 0 0 1 1.46,-0.12a9.82,9.82 0 0 1 1.54,0.12z"/>
  <path id="svg_8" opacity="0.1" d="m587.63,572.39a8.5,8.5 0 0 1 -4.12,1a8.15,8.15 0 0 1 -4.43,-1.18l0.31,-1.46l7.18,0a5,5 0 0 1 1.06,1.64z"/>
  <ellipse id="svg_9" fill="#dce2ed" ry="3.57" rx="6.01" cy="568.66" cx="583.51"/>
  <path id="svg_17" opacity="0.1" d="m588.74,260.17l-0.81,2.61l-8.45,0l-0.63,-1.77a7.07,7.07 0 0 1 5.42,-2a8.11,8.11 0 0 1 4.47,1.16z"/>
  <path id="svg_18" opacity="0.1" d="m585.06,263.67l0,4.65c-0.26,0 -0.52,0 -0.79,0a9.25,9.25 0 0 1 -2.22,-0.26l0,-4.39l3.01,0z"/>
  <ellipse id="svg_19" fill="#dce2ed" ry="3.57" rx="6.01" cy="263.67" cx="584.26"/>
  <path id="svg_21" fill="#535f89" d="m806.26,653.98a9.6,9.6 0 0 1 -11.78,0c-1.65,-10.86 2.53,-32.22 3.51,-37c0.13,-0.63 0.21,-1 0.21,-1l4.71,0a3.34,3.34 0 0 1 0.74,1.1c3.26,6.99 2.61,36.9 2.61,36.9z"/>
  <path id="svg_22" opacity="0.1" d="m801.94,611.62l0,4.39l-2,0l0,-4.39a5,5 0 0 1 1,-0.08a6.69,6.69 0 0 1 1,0.08z"/>
  <path id="svg_23" opacity="0.1" d="m803.65,617.07a5.71,5.71 0 0 1 -2.73,0.64a5.5,5.5 0 0 1 -2.93,-0.77c0.13,-0.63 0.21,-1 0.21,-1l4.71,0a3.34,3.34 0 0 1 0.74,1.13z"/>
  <ellipse id="svg_24" fill="#dce2ed" ry="2.36" rx="3.97" cy="614.65" cx="800.92"/>
  <path id="svg_32" opacity="0.1" d="m804.38,410.7l-0.54,1.72l-5.58,0l-0.42,-1.17a4.68,4.68 0 0 1 3.58,-1.34a5.36,5.36 0 0 1 2.96,0.79z"/>
  <path id="svg_33" opacity="0.1" d="m801.94,413.01l0,3.06l-0.52,0a6.15,6.15 0 0 1 -1.46,-0.17l0,-2.93l1.98,0.04z"/>
  <ellipse id="svg_34" fill="#dce2ed" ry="2.36" rx="3.97" cy="413.01" cx="801.42"/>
  <ellipse id="svg_35" opacity="0.1" fill="#6c63ff" ry="44" rx="445" cy="790.15" cx="445"/>
  <path id="svg_36" fill="#dea3a2" d="m446.84,687.76s-89.2,-3.75 -98.59,-178.4s83.57,-204.23 83.57,-204.23s29.45,-16.45 42.51,-17.13s56.71,3.43 56.71,3.43l-48.12,-9.28s67.71,-25.77 88,-27.83l-73.2,15.46s-1,-40.55 16.5,-53.95c0,0 -15,-1.12 -22.91,28.09a55.8,55.8 0 0 1 -33.42,37.5c-27.15,10.59 -64.69,27.31 -73.24,41.63c0,0 -15.81,16.5 -13.4,-26.46s13.74,-79.74 17.87,-80.77c0,0 32.3,-34.36 77.67,-36.42c0,0 -26.46,-10.66 -71.14,22.68c0,0 -3.78,-16.84 13.06,-36.78s43,-61.86 71.48,-66.32c0,0 -39.86,-2.41 -71.48,49.14c0,0 -11.69,7.56 -12.72,-11.68s-7.9,-43.31 -7.9,-43.31s-9.63,44.34 10.65,64.27c0,0 -38.84,50.52 -37.12,107.23c0,0 -12,25.77 -16.49,-4.47c0,0 -2.59,-41.65 -7.76,-77a104.62,104.62 0 0 1 21.94,-80.71c8.59,-10.69 14.57,-21.07 11.25,-26.52l-45,53.61s-37.85,-87.61 -65.34,-106.47s-30.93,-23 -30.93,-23l44.33,51.89l-55.67,-19.66l55.67,25.77s25.78,21 40.56,78.36s16.15,93.13 16.15,93.13s-79.39,-62.89 -94.51,-60.83l51.37,38.86a122.37,122.37 0 0 1 48.29,89.33l0,0s-99.32,-25.43 -123.38,-30.24l-45.36,-46.4l34.37,44l-70.8,-1l-40.55,-28.87s32,26.81 28.86,28.53s-49.83,3.78 -49.83,3.78s118.91,-0.69 132,7.9s42.27,11.69 42.27,11.69l-84.2,12.71l100.36,-7.21s75.95,13.74 80.07,37.46c0,0 -15.47,40.36 -25.77,56.36c-8.56,13.3 -25.78,56.36 -29.21,94.17s-8.25,95.88 4.81,131.28s17.87,55.68 11.34,66.33s-12.72,24.4 8.59,27.15s114.79,-1.37 114.79,-1.37s28.51,5.6 23,-15.43z"/>
  <path id="svg_37" opacity="0.1" d="m396.88,669.01a44.9,44.9 0 0 0 -30.31,-3.79c-17.5,3.79 -44.31,1.78 -46.75,1.36"/>
  <path id="svg_38" opacity="0.1" d="m340.89,463.21s-4.26,67.18 3.31,80.43l-3.31,-80.43z"/>
  <path id="svg_39" opacity="0.1" d="m325.17,543.64s5.46,62.92 9.24,75.22s-9.24,-75.22 -9.24,-75.22z"/>
  <path id="svg_40" opacity="0.1" d="m319.85,388.93c-3.87,1.42 -20.43,35 -17.11,44.95s17.11,-44.95 17.11,-44.95z"/>
  <path id="svg_41" opacity="0.1" d="m361.83,354.07c-1.79,0.81 -9.5,20.16 -8,25.88s8,-25.88 8,-25.88z"/>
  <path id="svg_42" opacity="0.1" d="m290.13,466.88c1.92,19.51 3,32.28 1.74,47.9a184.7,184.7 0 0 0 0.52,36.43"/>
  <path id="svg_43" opacity="0.1" d="m497.47,239.73c-2.33,2.66 -3.11,6.35 -3.22,9.89s0.34,7.08 0.11,10.61c-0.25,3.71 -2,8.07 -5.7,8.56"/>
  <path id="svg_44" opacity="0.1" d="m434.01,123.42a89.35,89.35 0 0 0 -12.44,15.44a36.81,36.81 0 0 1 -3.53,5c-2,2.18 -4.54,3.73 -6.82,5.59a32.1,32.1 0 0 0 -10.87,17"/>
  <path id="svg_45" opacity="0.1" d="m254.35,23a22.21,22.21 0 0 0 4.41,5.9c1.56,1.48 3.34,2.74 4.75,4.36a34.56,34.56 0 0 1 3,4.48c3.62,5.79 8.17,10.94 12.71,16"/>
  <path id="svg_46" opacity="0.1" d="m337.57,122.42c-3,1.85 -3.73,5.81 -3.67,9.3s0.66,7.13 -0.63,10.37c-0.59,1.48 -1.55,2.78 -2.17,4.24c-1.06,2.52 -1.06,5.34 -1,8.08c0.05,3.16 0.15,6.33 0.29,9.49c0.16,3.8 0.52,7.94 3.11,10.73"/>
  <path id="svg_47" fill="none" d="m312.66,221.07a40.94,40.94 0 0 1 7.71,5.31a13.84,13.84 0 0 1 4.48,8c0.17,1.33 0.08,2.69 0.38,4a12.62,12.62 0 0 0 2.63,4.83a66.42,66.42 0 0 0 6.51,7.21"/>
  <path id="svg_48" opacity="0.1" d="m335.1,310.75a46.94,46.94 0 0 0 -6.22,-4.32a25.84,25.84 0 0 0 -6.39,-2.81c-3.43,-0.91 -7,-0.77 -10.56,-1.14s-7.22,-1.35 -9.62,-4"/>
  <path id="svg_49" opacity="0.1" d="m195.36,267.33c4.18,0.12 8.52,0.27 12.24,2.18c1.9,1 3.55,2.38 5.41,3.42a16.36,16.36 0 0 0 7.89,2.05"/>
  <path id="svg_50" opacity="0.1" d="m253.34,284.59c-0.9,-0.7 -2.26,-0.16 -3,0.7s-1.15,2 -1.92,2.8c-1.53,1.65 -4,1.84 -6.27,1.92"/>
  <path id="svg_51" opacity="0.1" d="m277.25,195.76l4,2.11a71.08,71.08 0 0 1 11.87,7.2"/>
  <path id="svg_52" opacity="0.1" d="m323.17,235.07c2.64,-0.63 4.92,2.19 5.39,4.86s-0.08,5.49 0.67,8.1a15.11,15.11 0 0 0 4,5.93"/>
  <path id="svg_53" opacity="0.1" d="m367.87,239.96c2.41,7.18 -2.69,15 -1.2,22.43c0.45,2.26 1.5,4.36 2,6.61c1.39,5.9 -1,12.18 -4.86,16.87"/>
  <path id="svg_55" fill="#535f89" d="m230.79,636.68a18.12,18.12 0 0 1 -22.25,0c-3.1,-20.51 4.78,-60.82 6.64,-69.86l0.39,-1.83l8.9,0a6.59,6.59 0 0 1 1.39,2.08c6.16,13.12 4.93,69.61 4.93,69.61z"/>
  <path id="svg_56" opacity="0.1" d="m222.64,556.71l0,8.28l-3.75,0l0,-8.29a10.86,10.86 0 0 1 1.83,-0.14a12,12 0 0 1 1.92,0.15z"/>
  <path id="svg_57" opacity="0.1" d="m225.86,567.07a10.64,10.64 0 0 1 -5.14,1.21a10.26,10.26 0 0 1 -5.54,-1.46l0.39,-1.83l8.9,0a6.59,6.59 0 0 1 1.39,2.08z"/>
  <ellipse id="svg_58" fill="#dce2ed" ry="4.45" rx="7.5" cy="562.42" cx="220.72"/>
  <path id="svg_67" opacity="0.1" d="m222.64,181.71l0,5.8c-0.32,0 -0.65,0.05 -1,0.05a11.62,11.62 0 0 1 -2.77,-0.33l0,-5.52l3.77,0z"/>
  <ellipse id="svg_69" opacity="0.1" fill="#6c63ff" ry="2.84" rx="16.82" cy="687.72" cx="914.02"/>
  <path id="svg_70" fill="#a8a8a8" d="m902.73,674.51s9.59,-0.3 12.48,-2.36s14.76,-4.51 15.47,-1.21s14.42,16.42 3.59,16.51s-25.17,-1.69 -28.05,-3.45s-3.49,-9.49 -3.49,-9.49z"/>
  <path id="svg_71" opacity="0.2" d="m934.46,686.3c-10.83,0.09 -25.16,-1.69 -28,-3.45c-2.19,-1.34 -3.07,-6.14 -3.36,-8.35l-0.32,0s0.6,7.73 3.49,9.49s17.22,3.53 28.05,3.45c3.13,0 4.2,-1.14 4.15,-2.79c-0.49,1.01 -1.68,1.63 -4.01,1.65z"/>
  <ellipse id="svg_72" opacity="0.1" fill="#6c63ff" ry="2.19" rx="12.94" cy="654.6" cx="1011.56"/>
  <path id="svg_73" fill="#a8a8a8" d="m1002.87,644.43s7.38,-0.23 9.61,-1.81s11.35,-3.48 11.9,-0.94s11.1,12.64 2.76,12.7s-19.36,-1.29 -21.58,-2.65s-2.69,-7.3 -2.69,-7.3z"/>
  <path id="svg_74" opacity="0.2" d="m1027.29,653.5c-8.33,0.07 -19.36,-1.3 -21.58,-2.65c-1.69,-1 -2.37,-4.73 -2.59,-6.43l-0.25,0s0.47,5.95 2.69,7.3s13.25,2.72 21.58,2.65c2.41,0 3.24,-0.87 3.19,-2.14c-0.33,0.78 -1.25,1.26 -3.04,1.27z"/>
  <ellipse id="svg_75" opacity="0.1" fill="#6c63ff" ry="5.22" rx="30.89" cy="792.9" cx="952.84"/>
  <path id="svg_76" fill="#a8a8a8" d="m932.1,768.63s17.62,-0.55 22.93,-4.33s27.11,-8.3 28.43,-2.23s26.48,30.16 6.58,30.32s-46.22,-3.09 -51.47,-6.32s-6.47,-17.44 -6.47,-17.44z"/>
  <path id="svg_77" opacity="0.2" d="m990.4,790.28c-19.9,0.16 -46.23,-3.1 -51.53,-6.32c-4,-2.46 -5.64,-11.29 -6.18,-15.36l-0.59,0s1.12,14.24 6.47,17.47s31.63,6.49 51.52,6.32c5.75,0 7.73,-2.08 7.62,-5.11c-0.85,1.79 -3.04,2.97 -7.31,3z"/>
  <path id="svg_78" fill="#dea3a2" d="m634.09,547.3s51.23,-2.16 56.62,-102.46s-48,-117.3 -48,-117.3s-16.91,-9.45 -24.41,-9.84s-32.57,2 -32.57,2l27.63,-5.33s-38.88,-14.8 -50.53,-16l42,8.88s0.59,-23.29 -9.48,-31c0,0 8.58,-0.64 13.16,16.13a32,32 0 0 0 19.19,21.54c15.6,6.09 37.16,15.69 42.07,23.91c0,0 9.08,9.48 7.69,-15.2s-7.89,-45.8 -10.26,-46.39c0,0 -18.55,-19.73 -44.61,-20.92c0,0 15.2,-6.11 40.86,13c0,0 2.17,-9.67 -7.5,-21.12s-24.67,-35.53 -41.06,-38.09c0,0 22.9,-1.39 41.06,28.22c0,0 6.71,4.34 7.3,-6.71s4.54,-24.87 4.54,-24.87s5.53,25.46 -6.12,36.91c0,0 22.31,29 21.32,61.59c0,0 6.91,14.8 9.48,-2.57c0,0 1.48,-23.92 4.45,-44.21a60.13,60.13 0 0 0 -12.6,-46.36c-4.93,-6.13 -8.37,-12.1 -6.46,-15.23l25.86,30.79s21.71,-50.33 37.5,-61.19s17.77,-13.22 17.77,-13.22l-25.42,29.81l32,-11.25l-32,14.81s-14.8,12 -23.29,45s-9.28,53.49 -9.28,53.49s45.57,-36.05 54.29,-34.91l-29.51,22.31a70.31,70.31 0 0 0 -27.74,51.31l0,0s57,-14.61 70.87,-17.37l26,-26.65l-19.69,25.26l40.66,-0.59l23.3,-16.58s-18.36,15.4 -16.61,16.39s28.63,2.17 28.63,2.17s-68.3,-0.39 -75.8,4.54s-24.28,6.71 -24.28,6.71l48.38,7.36l-57.64,-4.15s-43.62,7.9 -46,21.52c0,0 8.89,23.18 14.81,32.37c4.91,7.63 14.8,32.37 16.77,54.08s4.74,55.07 -2.76,75.4s-10.26,32 -6.51,38.1s7.3,14 -4.94,15.59s-65.93,-0.79 -65.93,-0.79s-16.38,3.19 -13.21,-8.89z"/>
  <path id="svg_79" opacity="0.1" d="m662.78,536.53a25.76,25.76 0 0 1 17.39,-2.17c10,2.17 25.45,1 26.85,0.78"/>
  <path id="svg_80" opacity="0.1" d="m694.94,418.33s2.44,38.59 -1.9,46.19l1.9,-46.19z"/>
  <path id="svg_81" opacity="0.1" d="m703.96,464.52s-3.13,36.14 -5.3,43.21s5.3,-43.21 5.3,-43.21z"/>
  <path id="svg_82" opacity="0.1" d="m707.02,375.67c2.22,0.82 11.73,20.11 9.83,25.81s-9.83,-25.81 -9.83,-25.81z"/>
  <path id="svg_83" opacity="0.1" d="m682.91,355.65c1,0.46 5.46,11.58 4.57,14.86s-4.57,-14.86 -4.57,-14.86z"/>
  <path id="svg_84" opacity="0.1" d="m724.09,420.44c-1.1,11.21 -1.7,18.54 -1,27.51a105.41,105.41 0 0 1 -0.3,20.92"/>
  <path id="svg_85" opacity="0.1" d="m605,289.98a9,9 0 0 1 1.86,5.68c0.07,2 -0.2,4.06 -0.07,6.09s1.16,4.63 3.28,4.92"/>
  <path id="svg_86" opacity="0.1" d="m641.46,223.17a51.22,51.22 0 0 1 7.11,8.9a20.84,20.84 0 0 0 2,2.89a33,33 0 0 0 3.92,3.21a18.46,18.46 0 0 1 6.24,9.79"/>
  <path id="svg_87" opacity="0.1" d="m744.64,165.5a12.94,12.94 0 0 1 -2.53,3.39c-0.9,0.85 -1.92,1.57 -2.73,2.5a19.71,19.71 0 0 0 -1.75,2.57a69.5,69.5 0 0 1 -7.29,9.22"/>
  <path id="svg_88" opacity="0.1" d="m696.85,222.6c1.71,1.06 2.15,3.34 2.11,5.34s-0.38,4.1 0.37,6c0.34,0.85 0.89,1.6 1.24,2.44a11.44,11.44 0 0 1 0.59,4.63c0,1.82 -0.09,3.64 -0.17,5.45c-0.09,2.19 -0.3,4.56 -1.78,6.17"/>
  <path id="svg_89" fill="none" d="m711.15,279.23a23.72,23.72 0 0 0 -4.43,3a7.94,7.94 0 0 0 -2.57,4.62c-0.1,0.76 -0.05,1.54 -0.22,2.29a7.3,7.3 0 0 1 -1.51,2.77a37.58,37.58 0 0 1 -3.74,4.14"/>
  <path id="svg_90" opacity="0.1" d="m698.26,330.77a28.1,28.1 0 0 1 3.57,-2.48a15.1,15.1 0 0 1 3.68,-1.62a39.55,39.55 0 0 1 6.06,-0.6a8.59,8.59 0 0 0 5.53,-2.27"/>
  <path id="svg_91" opacity="0.1" d="m778.57,305.83c-2.4,0.07 -4.89,0.15 -7,1.25c-1.09,0.56 -2,1.37 -3.11,2a9.33,9.33 0 0 1 -4.53,1.18"/>
  <path id="svg_92" opacity="0.1" d="m745.22,315.74a1.35,1.35 0 0 1 1.73,0.4c0.43,0.49 0.66,1.13 1.11,1.61c0.87,0.95 2.3,1.06 3.59,1.1"/>
  <path id="svg_93" opacity="0.1" d="m731.49,264.73l-2.31,1.2a40.93,40.93 0 0 0 -6.8,4.15"/>
  <path id="svg_94" opacity="0.1" d="m705.12,287.29c-1.52,-0.36 -2.83,1.26 -3.1,2.8s0,3.15 -0.39,4.65a8.7,8.7 0 0 1 -2.27,3.41"/>
  <path id="svg_95" opacity="0.1" d="m679.44,290.07c-1.38,4.12 1.55,8.62 0.69,12.88c-0.26,1.3 -0.86,2.51 -1.17,3.8c-0.8,3.39 0.58,7 2.79,9.69"/>
  <path id="svg_96" fill="#6c63ff" d="m381.09,372.79c-16.42,22.14 -29.94,87.27 -33.73,106.9l-28.6,-1.13c1.8,-16.89 36.38,-85.09 46,-103.8c5.15,-0.69 10.66,-1.39 16.33,-1.97z"/>
  <rect id="svg_97" fill="#dce0ed" height="17.86" width="12.68" y="364.93" x="725.73"/>
  <path id="svg_98" opacity="0.1" d="m738.41,364.93l0,5.81a9.76,9.76 0 0 1 -2.75,0.37l-9.92,-0.08l0,-6.1l12.67,0z"/>
  <path id="svg_99" fill="#dce0ed" d="m720.38,319.43l12,0a14.37,14.37 0 0 1 13.31,9c3.5,8.63 6.47,22.35 -1.33,36a9.88,9.88 0 0 1 -8.67,5l-15.28,-0.13l-0.03,-49.87z"/>
  <ellipse id="svg_100" fill="#f0f0f4" ry="24.93" rx="12.82" cy="344.37" cx="720.38"/>
  <rect id="svg_101" fill="#dce0ed" height="15.63" width="12.68" y="365.14" x="613.13"/>
  <path id="svg_102" opacity="0.1" d="m625.81,365.14l0,5a9.78,9.78 0 0 1 -2.76,0.37l-9.92,-0.09l0,-5.25l12.68,-0.03z"/>
  <path id="svg_103" fill="#dce0ed" d="m607.78,319.65l12,0a14.34,14.34 0 0 1 13.3,9c3.51,8.63 6.48,22.35 -1.32,36a9.9,9.9 0 0 1 -8.68,5l-15.27,-0.14l-0.03,-49.86z"/>
  <ellipse id="svg_104" fill="#f0f0f4" ry="24.93" rx="12.82" cy="344.58" cx="607.78"/>
  <path id="svg_105" fill="#dce0ed" d="m610.98,328.76s-4.73,0.76 -2.27,7a42.66,42.66 0 0 1 2.83,9.45s4.73,2.46 4.54,-5.67s-5.1,-10.78 -5.1,-10.78z"/>
  <ellipse id="svg_106" fill="#636780" ry="81.97" rx="74.79" cy="685" cx="130.6"/>
  <path id="svg_107" opacity="0.1" d="m158.62,608.14c-39.13,2.63 -70.13,38.25 -70.13,81.81c0,35.11 20.14,65.06 48.45,76.73c39.14,-2.63 70.14,-38.25 70.14,-81.81c0,-35.11 -20.15,-65.06 -48.46,-76.73z"/>
  <ellipse id="svg_108" fill="#636780" ry="79.15" rx="60.7" cy="505.84" cx="715.94"/>
  <path id="svg_109" opacity="0.1" d="m698.98,430c-25.18,9.65 -43.56,40 -43.56,75.95c0,38.42 21,70.44 48.84,77.64c25.17,-9.65 43.56,-40 43.56,-75.95c0,-38.42 -21,-70.44 -48.84,-77.64z"/>
  <path id="svg_110" fill="#6c63ff" d="m487.92,488.94l1.13,-28.73s-5.64,-12.4 -11.27,-13.52s-18.59,-1.83 -18.59,-1.83s-10.14,41.26 -3.38,53.66s32.11,-9.58 32.11,-9.58z"/>
  <path id="svg_111" opacity="0.1" d="m487.92,488.94l1.13,-28.73s-5.64,-12.4 -11.27,-13.52s-18.59,-1.83 -18.59,-1.83s-10.14,41.26 -3.38,53.66s32.11,-9.58 32.11,-9.58z"/>
  <path id="svg_112" fill="#6c63ff" d="m383.98,485.84s-3.49,-39.84 18.4,-40.56c2.82,-0.09 5.64,-0.16 8.45,-0.43c15.17,-1.47 56.56,-4.66 51.6,4.79c0,0 -9.86,34.65 -3.1,43.38l-75.35,-7.18z"/>
  <path id="svg_113" fill="#6c63ff" d="m694.26,559.71l29.36,0.85s5.07,-54.09 6.76,-58.31s2.54,-24.51 -2.95,-27.46s-23.86,-6.55 -23.86,-6.55l-13.54,30.83l-1.05,27.89l5.28,32.75z"/>
  <path id="svg_114" opacity="0.1" d="m694.26,559.71l29.36,0.85s5.07,-54.09 6.76,-58.31s2.54,-24.51 -2.95,-27.46s-23.86,-6.55 -23.86,-6.55l-13.54,30.83l-1.05,27.89l5.28,32.75z"/>
  <path id="svg_115" fill="#6c63ff" d="m623.27,469.93l-0.13,-6a3.47,3.47 0 0 1 3.62,-3.54c14.56,0.61 67.52,3.15 76.79,7.88c0,0 -10.14,75.42 1.06,93.38l-3.8,60.42l-129.72,-9.72l52.18,-142.42z"/>
  <path id="svg_116" opacity="0.1" d="m613.13,374.68c3.6,-0.36 7.89,-0.74 12.68,-1.12l0,7.21l-12.68,0l0,-6.09z"/>
  <path id="svg_117" opacity="0.1" d="m738.41,381.87l0,0.91l-12.67,0l0,-5.48a54.13,54.13 0 0 1 12.67,4.57z"/>
  <path id="svg_118" fill="url(#ceac7335-2455-461d-90f8-41e05a42a239)" d="m381.03,470.25a1.18,1.18 0 0 1 0.48,-0.75a1.69,1.69 0 0 1 0.87,-0.08l0,0c0,0.32 0,0.51 0,0.51l0,0a19.56,19.56 0 0 0 -1.81,1.85c0.18,-0.51 0.31,-1.02 0.46,-1.53zm45.89,-13.46a1.55,1.55 0 0 0 0,-0.21a44.29,44.29 0 0 1 2.19,-4.68c-0.8,1.54 -1.54,3.17 -2.19,4.89zm6.84,-12.94c-1.08,1.61 -2.39,3.69 -3.68,6.1a28.34,28.34 0 0 1 3.68,-6.1zm-178.67,139.94c5.09,0.2 9.33,0.11 9.33,0.11c-0.92,0.42 -5.01,0.23 -9.33,-0.11zm9.34,0.1c0.19,-0.12 2.07,-1.22 6.46,-0.78c0,-0.04 -4.32,-0.19 -6.46,0.78zm170.81,-76.92l1.86,-32s-0.69,16.34 -0.46,23.41a23,23 0 0 1 -1.4,8.6l0,-0.01z"/>
  <path id="svg_119" fill="#f899a5" d="m328.82,568.25s-0.53,1.64 -1.23,3.72c-1.14,3.39 -2.75,8 -3.3,8.43s-4.81,0.71 -9.45,1a29.22,29.22 0 0 1 -19.92,-6.33s2.43,-1.75 5,-3.78s5.27,-4.33 5.82,-5.46c0.77,-1.55 5.17,-4.22 7.82,-5.72c1.19,-0.68 2,-1.12 2,-1.12l13.26,9.26z"/>
  <path id="svg_120" fill="#f3b4b4" d="m323.2,582.38s-46.76,-2.15 -49.55,-2.77s-3.36,-3.9 -3.36,-3.9c-0.93,-2.18 4,-1.71 4,-1.71l0,0c0.5,0.08 6,1 11.18,1.66l0,0c4.15,0.53 8.08,0.89 9,0.5l0,0c2.09,-0.87 6.26,-0.5 6.26,-0.5c-2.37,-7.84 -9.55,-9.71 -12.62,-10.15l0.19,-0.19a15.7,15.7 0 0 1 2.67,-2c9.53,0.39 14.57,13.53 14.57,13.53l0.08,0c1.08,0.34 12.57,3.9 14.85,4.23l0,0c2.38,0.37 2.73,1.3 2.73,1.3z"/>
  <path id="svg_121" fill="#f899a5" d="m298.75,586.55c-0.18,0.59 -1,1 -2.34,1.11a15.2,15.2 0 0 1 -2.18,0l0,0a49.52,49.52 0 0 1 -13,-2.92c-0.72,-0.25 -1.4,-0.47 -2.06,-0.66l-0.08,0a28.33,28.33 0 0 0 -4.86,-1c-4.24,-0.44 -6.05,0.66 -6.23,0.78l0,0s-4.1,0.09 -9,-0.11l0,0a73.14,73.14 0 0 1 -11.23,-1.18l0,0c-0.53,-0.11 -1,-0.24 -1.49,-0.37a10.4,10.4 0 0 1 -2.51,-1c-5.16,-3.1 12.22,-5.19 12.22,-5.19a9.06,9.06 0 0 0 5.26,-2.54l0.18,-0.2l0.44,-0.44l0,0a23.9,23.9 0 0 1 2.11,-1.64l0.64,-0.43c3.46,-2.34 8.12,-4.84 8.12,-4.84a19.74,19.74 0 0 0 8.61,-4.92a10.21,10.21 0 0 0 1.2,-1.42l0,0l9.61,-2.48l6.62,15.9s0.05,0.86 0.1,2.15c0.11,3.46 0.3,10 -0.13,11.4z"/>
  <path id="svg_122" opacity="0.1" d="m296.41,587.66a15.2,15.2 0 0 1 -2.18,0l0,0a49.52,49.52 0 0 1 -13,-2.92c-0.72,-0.25 -1.4,-0.47 -2.06,-0.66l-0.08,0a28.33,28.33 0 0 0 -4.86,-1c-4.24,-0.44 -6.05,0.66 -6.23,0.78l0,0s-4.1,0.09 -9,-0.11l0,0a73.14,73.14 0 0 1 -11.23,-1.18l0,0c-0.53,-0.11 -1,-0.24 -1.49,-0.37a11.91,11.91 0 0 1 1.93,-0.08l0,0c0.49,0.06 6.05,0.74 11.23,1.17l0,0c4.18,0.35 8.12,0.54 9,0.11l0,0c2.05,-1 6.23,-0.78 6.23,-0.78c-2.7,-7.73 -10,-9.28 -13.05,-9.59c0.06,-0.07 0.13,-0.13 0.18,-0.2l0,0a16.51,16.51 0 0 1 2.55,-2.08l0.2,0c9.41,0.15 14.95,12.87 14.95,12.87l0.08,0c1.09,0.29 12.73,3.36 15,3.59l0,0a5.73,5.73 0 0 1 1.83,0.45z"/>
  <path id="svg_123" fill="#f3b4b4" d="m296.96,588.85s-46.81,-0.12 -49.62,-0.61s-3.53,-3.76 -3.53,-3.76c-1,-2.13 3.89,-1.87 3.89,-1.87l0,0c0.49,0.06 6,0.74 11.23,1.18l0,0c4.17,0.34 8.12,0.53 9,0.11l0,0c2,-1 6.23,-0.78 6.23,-0.78c-2.71,-7.73 -10,-9.28 -13.05,-9.59l0.18,-0.2a17.09,17.09 0 0 1 2.58,-2.11c9.54,0 15.15,12.88 15.15,12.88l0.08,0c1.09,0.28 12.73,3.35 15,3.58l0,0c2.47,0.25 2.86,1.17 2.86,1.17z"/>
  <path id="svg_124" opacity="0.1" d="m328.82,568.25s-0.53,1.64 -1.23,3.72c-0.28,-0.19 -9.49,-6.32 -13,-10.34a7.61,7.61 0 0 1 -1.06,-1.49c1.19,-0.68 2,-1.12 2,-1.12l13.29,9.23z"/>
  <path id="svg_125" fill="#bdd3e8" d="m355.76,547.97l-1.66,5.37l-15.9,8.66s-4.3,3.05 -5,4.49a4.48,4.48 0 0 1 -2.54,2a35.24,35.24 0 0 0 -2.2,3.06s-9.44,-6.26 -13,-10.34c-1.1,-1.26 -1.63,-2.32 -1.13,-2.91c2.08,-2.5 14.56,-11.48 14.56,-11.48s7.62,-10 7.95,-9.82s4.16,-3.51 6.41,-5.6l1.54,-1.44l10.97,18.01z"/>
  <path id="svg_126" fill="#f899a5" d="m431.57,439.86l-15.48,27.38l-5.68,10.83l-30.25,-4.41l0.68,-1.45l2.56,-5.37l1.17,-2.46l0.18,-0.33l3.35,-6.07l0.19,-0.25l2.43,-3.44l4.89,-6.91a4.42,4.42 0 0 0 1.6,-0.42a3.78,3.78 0 0 0 1.83,-2.08c1.73,-4.28 -1.44,-12.51 -1.44,-12.51s11.48,-28 15.46,-12.59c2.94,11.43 11.67,16.95 16,19a22,22 0 0 0 2.51,1.08z"/>
  <path id="svg_127" fill="#bdd3e8" d="m379.57,533.99l0,2.65s10,9.57 8.68,17.37s1.47,17.52 1.47,17.52l10.06,-0.72l-1.52,-35.64l-18.69,-1.18z"/>
  <path id="svg_128" opacity="0.05" d="m399.78,570.81l-10.06,0.72s-2.79,-9.71 -1.47,-17.52s-8.68,-17.37 -8.68,-17.37l0,-2.65l18.69,1.18l0.1,2.32l1.42,33.32z"/>
  <path id="svg_129" opacity="0.05" d="m344.08,532.96a84,84 0 0 0 -8.82,9.57c-3.54,4.71 -9.57,11.48 -9.57,11.48l-7.21,4.27l-3,2.91c-1.1,-1.26 -1.63,-2.32 -1.13,-2.91c2.08,-2.5 14.56,-11.48 14.56,-11.48s7.62,-10 7.95,-9.82s4.16,-3.51 6.41,-5.6l0.81,1.58z"/>
  <path id="svg_130" opacity="0.1" d="m298.85,575.15a9.73,9.73 0 0 0 -0.83,0.8s-0.15,4.7 -3.83,-6.34s-12.81,-8.39 -12.81,-8.39a0.17,0.17 0 0 1 -0.07,-0.2c0,-0.3 0.53,-0.82 1.2,-1.42l0,0l9.61,-2.48l6.62,15.9s0.06,0.84 0.11,2.13z"/>
  <path id="svg_131" fill="#bdd3e8" d="m332.76,512.35l-5.6,0.15l-3.83,5.45s-6.33,6.77 -8.24,8.46s-14.28,13.32 -17.81,19.36c0,0 -3.24,1.62 -3.24,3.24s-6.18,6.33 -6.18,6.33s-6.48,4.41 -5.6,5c0,0 9.13,-2.65 12.81,8.39s3.83,6.33 3.83,6.33a8.59,8.59 0 0 1 2.21,-1.74c0.88,-0.32 5.07,-6.35 6.36,-6.5a6.36,6.36 0 0 0 2.62,-1.18l7.5,-7.36l7.22,-4.27s6,-6.77 9.56,-11.48a84.69,84.69 0 0 1 8.83,-9.57l-10.44,-20.61z"/>
  <path id="svg_132" opacity="0.1" d="m304.79,547.98s10,4.85 9.57,5.88s-9.57,-5.88 -9.57,-5.88z"/>
  <path id="svg_133" opacity="0.1" d="m312.69,546.8s0.78,4.37 4.76,4.17s-4.76,-4.17 -4.76,-4.17z"/>
  <path id="svg_134" opacity="0.1" d="m298.75,559.07s0.59,2.5 4.27,2.94s-4.27,-2.94 -4.27,-2.94z"/>
  <path id="svg_135" opacity="0.1" d="m336.22,547.98s4.85,2 5.29,4.78s-5.29,-4.78 -5.29,-4.78z"/>
  <path id="svg_136" opacity="0.1" d="m324.29,558.28c1.88,0.81 7.29,6.88 7.18,7.54s-7.18,-7.54 -7.18,-7.54z"/>
  <path id="svg_137" opacity="0.1" d="m332.9,553.97a3.25,3.25 0 0 1 3.32,0.7c1.35,1.4 -3.32,-0.7 -3.32,-0.7z"/>
  <path id="svg_138" fill="#f899a5" d="m368.57,505.88s-18.77,-6.08 -17.33,0s17.33,9.49 17.33,9.49l0,-9.49z"/>
  <path id="svg_139" opacity="0.1" d="m431.57,439.86l-15.48,27.38l-5.68,10.83l-30.25,-4.41l0.68,-1.45a17.46,17.46 0 0 1 2.41,-2.7a10,10 0 0 1 0.15,-2.67a5.19,5.19 0 0 1 1.35,-2.79l0.12,-0.11c1.42,-1.25 2.77,-4.48 3.42,-6.21c0.26,-0.69 0.4,-1.15 0.4,-1.15l2,-2.29l6.49,-7.33l1.83,-2.08l1.72,-1.94l-6.16,8.76s-2.94,5.3 -3.09,6s-5,7.21 -5,7.21s-8.24,7.22 6.48,7.36s23.7,-14.2 23.7,-14.2l12.42,-19.24a22,22 0 0 0 2.49,1.03z"/>
  <polygon id="svg_140" opacity="0.1" points="398.36 537.49 392.59 537.09 379.56 536 379.56 534 398.26 535.17 398.36 537.49"/>
  <path id="svg_141" fill="#e6ebef" d="m429.03,437.28s2.65,2.94 5.3,3.09c0,0 -4.86,5.15 -6.63,10.16c0,0 -8.26,13.9 -2.35,18.69s9.34,5.74 9.34,5.74l-1.79,32s4.37,22 6,23.64s1.18,5.3 1.18,5.3s-1.07,3.68 0.05,5s1.42,8.1 1.42,8.1s-6.62,-3.39 -8,-3.39s-5,-6.92 -5,-6.92l-36,-2.5l-15.83,-1.32l2.5,-44s-7.21,-11.83 2.65,-20.93c0,0 -0.38,-3.81 1.62,-5.57s3.83,-7.36 3.83,-7.36l12.07,-13.64l0,0l-6.18,8.79s-2.95,5.3 -3.09,6s-5,7.22 -5,7.22s-8.24,7.21 6.48,7.36s23.7,-14.28 23.7,-14.28l13.73,-21.18z"/>
  <path id="svg_142" opacity="0.1" d="m417.25,495.28s5.12,3.75 10.6,3.9s-10.6,-3.9 -10.6,-3.9z"/>
  <path id="svg_143" opacity="0.1" d="m423.87,483.39s4.05,-2 6.33,-0.33s-6.33,0.33 -6.33,0.33z"/>
  <path id="svg_144" opacity="0.1" d="m421.96,490.07s0.26,2.36 6.26,2.65s-6.26,-2.65 -6.26,-2.65z"/>
  <path id="svg_145" fill="#f899a5" d="m433.88,440.37l1.26,0.67a28.1,28.1 0 0 0 7.94,1.69c5.08,0.44 9.5,5.3 10.38,9.93c0.22,1.16 0.4,2.71 0.55,4.37a89.74,89.74 0 0 1 -0.28,18c-0.48,4.23 -1,9 -0.71,9.7c0.44,1.32 -2.43,21.86 -2.43,21.86s-0.66,16.78 -4.86,18.33s-27.6,1.54 -27.6,1.54l-9.93,-17.22l23.18,1.1a22.68,22.68 0 0 0 2.87,-11.92c-0.22,-7.07 0.44,-23.41 0.44,-23.41s-14,-3 -11.16,-13.93s10.35,-20.71 10.35,-20.71z"/>
  <path id="svg_146" fill="#bdd3e8" d="m389.72,571.53s-9.35,3.09 -13,1.47s-11.59,-7.8 -11.59,-7.8s-5.1,-5 -9.95,-10.59l-0.62,-0.72l0,0c-4.2,-4.89 -8,-10 -8,-12.53a10.65,10.65 0 0 0 -0.39,-3.11a13,13 0 0 0 -2,-4.07a12.15,12.15 0 0 0 -1.72,-1.94l-15.31,-19.73s4.42,-4.71 4.42,-6s5.3,-8.53 12.07,-4.7c2.85,1.6 9.66,7.57 16.6,13.94c9.55,8.76 19.32,18.29 19.32,18.29s0.69,0.74 1.7,1.89c2.59,3 7.27,8.65 7.64,11.51c0.54,3.92 0.83,24.09 0.83,24.09z"/>
  <path id="svg_147" opacity="0.05" d="m381.27,535.88c-7.25,7.22 -18.16,16.9 -26.08,18.73l-0.21,0.05l-0.41,-0.77l0,0l-8.36,-15.64l-2.12,-4l0.11,-0.11l16.06,-18.47c9.55,8.76 19.32,18.29 19.32,18.29s0.68,0.77 1.69,1.92z"/>
  <path id="svg_148" fill="#bdd3e8" d="m439.88,549.41l0,3.35s4.64,16.38 -3.75,21c-4.24,2.35 -13.27,2.91 -21.17,2.89a22.42,22.42 0 0 1 -22.13,-18.45a13.4,13.4 0 0 1 -0.09,-4.75s-3.75,-26.83 -4.64,-27c0,0 -21.09,24.15 -34,26.93l-10.9,-20.38l17.41,-20s12.92,-20.53 16.67,-22.41s7.51,-7.14 7.51,-7.14s15.13,-12.62 25.17,8.69s16.56,38.52 19,44.91c0,0 3.54,7.24 5.74,7.22l0.07,0a5.16,5.16 0 0 1 5.11,5.14z"/>
  <path id="svg_149" opacity="0.1" d="m387.66,525.31a21.82,21.82 0 0 0 4.52,-7.73c1.67,-4.86 -0.5,4.93 -4.08,8.83l-0.44,-1.1z"/>
  <path id="svg_150" fill="#4b3648" d="m368.01,403.8c0.15,1.4 1.2,2.65 2.28,3.82a73,73 0 0 0 7.38,6.95c1.12,0.93 2.33,1.9 2.7,3.11a4.89,4.89 0 0 1 -0.18,2.7a46.29,46.29 0 0 1 -3.92,9.74a6,6 0 0 0 -1.09,3.32c0.27,2.62 4,4.09 6.72,5.82c3.57,2.31 5.63,5.8 5.5,9.28c-0.22,5.43 -5.37,10.12 -6.58,15.48a26,26 0 0 0 9.73,-2c2.86,-1.35 5,-3.7 4.88,-6.2a1.75,1.75 0 0 1 0.15,-1.15a2.47,2.47 0 0 1 1.4,-0.72c2.67,-0.65 5.93,-0.44 7.89,-1.93s1.51,-4.11 0.67,-6.2c-2.28,-5.72 -5.58,-11.22 -7.57,-17a12.2,12.2 0 0 1 -0.86,-6.08c0.36,-2 1.59,-3.91 2.64,-5.81a37,37 0 0 0 4.38,-13.34c0.32,-2.64 0.31,-5.39 -1.08,-7.83c-1.55,-2.75 -4.84,-4.93 -8.73,-5.78c-7.51,-1.65 -11.51,2 -17.38,4.43c-4.37,1.86 -9.37,5.19 -8.93,9.39z"/>
  <path id="svg_151" opacity="0.1" d="m380.82,463.57c0.61,0 1.22,-0.07 1.83,-0.12c1.25,-5.31 6.32,-10 6.54,-15.35c0.13,-3.48 -1.94,-7 -5.5,-9.29c-2.68,-1.73 -6.45,-3.2 -6.72,-5.81a6.05,6.05 0 0 1 1.09,-3.33a46.29,46.29 0 0 0 3.92,-9.74a4.89,4.89 0 0 0 0.18,-2.7c-0.37,-1.21 -1.58,-2.18 -2.7,-3.1a74.27,74.27 0 0 1 -7.38,-7c-1.08,-1.16 -2.13,-2.41 -2.28,-3.81c-0.46,-4.2 4.51,-7.54 8.93,-9.39c4.59,-1.94 8,-4.56 12.94,-4.82c-5.88,-0.38 -9.59,2.66 -14.73,4.82c-4.42,1.85 -9.39,5.19 -8.93,9.39c0.15,1.4 1.2,2.65 2.28,3.81a74.27,74.27 0 0 0 7.38,7c1.12,0.92 2.33,1.89 2.7,3.1a4.89,4.89 0 0 1 -0.18,2.7a46.29,46.29 0 0 1 -3.92,9.74a6.05,6.05 0 0 0 -1.09,3.33c0.27,2.61 4,4.08 6.72,5.81c3.57,2.31 5.63,5.81 5.5,9.29c-0.22,5.42 -5.37,10.12 -6.58,15.47z"/>
  <circle id="svg_152" opacity="0.1" r="23.52" cy="415.42" cx="397.67"/>
  <circle id="svg_153" fill="#f899a5" r="23.52" cy="414.54" cx="398.11"/>
  <path id="svg_154" fill="#4b3648" d="m383.63,403.51c-1.84,-0.58 -3.77,-1.22 -5,-2.85s-1.45,-4.57 0.12,-5.91a10.34,10.34 0 0 1 2.83,-1.23c3.95,-1.75 4.62,-7.88 7.3,-11.71a8.78,8.78 0 0 1 8.1,-3.9a39,39 0 0 1 4.89,1.44c3.91,1.06 8.09,0.22 12.06,0.94c7.8,1.43 13.77,8.77 17,17c1.49,3.79 2.53,7.8 3.71,11.75a155.64,155.64 0 0 0 6.4,17.4a12.23,12.23 0 0 0 2.19,3.69c2.5,2.55 6.92,2.36 8.46,5.79c0.85,1.9 0.45,4.23 0.17,6.38a50.76,50.76 0 0 0 1.84,21.63c1.69,5.36 4.92,10.78 9.85,11.55c-1.89,2.64 -5.59,2.39 -7.93,0.5s-3.74,-4.93 -5.31,-7.7a49,49 0 0 0 -4.53,-6.65a9.35,9.35 0 0 0 -3.43,-2.95c-3.36,-1.36 -6.93,1.42 -9.93,3.84c-2.47,2 -5.14,3.87 -8.09,4.25a6.5,6.5 0 0 1 -7.15,-4.39c-1.13,-3.83 1.15,-9 -1.34,-11.78c-0.9,-1 -2.22,-1.37 -3.3,-2.14c-3.18,-2.26 -3.57,-7.43 -3.14,-11.81s1.33,-9.08 -0.37,-12.93a15.57,15.57 0 0 0 -4,-5a88,88 0 0 0 -24.16,-15.86"/>
  <g id="svg_155" opacity="0.1">
   <path id="svg_156" d="m426.86,466.07a6.5,6.5 0 0 1 -7.16,-4.39c-1.13,-3.82 1.16,-9 -1.34,-11.78c-0.9,-1 -2.22,-1.37 -3.29,-2.13c-3.19,-2.26 -3.58,-7.43 -3.14,-11.81s1.33,-9.09 -0.38,-12.94a15.68,15.68 0 0 0 -4,-5a88,88 0 0 0 -24.16,-15.95l2.78,0.66c-1.84,-0.58 -3.78,-1.23 -5,-2.85s-1.45,-4.57 0.13,-5.92a10.26,10.26 0 0 1 2.82,-1.22c4,-1.75 4.62,-7.88 7.3,-11.71a9.66,9.66 0 0 1 3.37,-3a9.19,9.19 0 0 0 -6.05,3.87c-2.68,3.83 -3.34,10 -7.3,11.71a10.34,10.34 0 0 0 -2.83,1.23c-1.57,1.34 -1.38,4.29 -0.12,5.91s3.2,2.27 5,2.85l-2.77,-0.65a88,88 0 0 1 24.15,15.92a15.57,15.57 0 0 1 4,5c1.71,3.85 0.81,8.55 0.37,12.93s0,9.55 3.14,11.81c1.08,0.77 2.4,1.12 3.3,2.14c2.49,2.79 0.21,7.95 1.34,11.78a6.5,6.5 0 0 0 7.15,4.39a10.38,10.38 0 0 0 3.22,-1a4.94,4.94 0 0 1 -0.53,0.15z"/>
   <path id="svg_157" d="m458.14,475.23c-2.34,-1.89 -3.74,-4.93 -5.3,-7.69a47.52,47.52 0 0 0 -4.54,-6.65a9.18,9.18 0 0 0 -3.43,-2.95a6.2,6.2 0 0 0 -5.26,0.58a5.09,5.09 0 0 1 2.58,0.31a9.27,9.27 0 0 1 3.43,2.95a49,49 0 0 1 4.53,6.65c1.57,2.77 3,5.81 5.31,7.7c2,1.58 4.88,2 6.89,0.55a6.49,6.49 0 0 1 -4.21,-1.45z"/>
  </g>
  <polygon id="svg_158" fill="#dce0ed" points="802 561.62 782.84 561.9 743.26 489.97 736.65 477.96 741.72 447.54 745.62 454.9 802 561.62"/>
  <polygon id="svg_159" fill="#dce0ed" points="628.76 473.17 620.88 485 597.3 453.12 586.51 438.52 592.99 429.79 597.95 435.81 628.76 473.17"/>
  <path id="svg_160" opacity="0.1" d="m597.95,435.8c0,0.61 0.07,1.24 0.11,1.87l-0.76,15.45l-10.79,-14.6l6.48,-8.73l4.96,6.01z"/>
  <polygon id="svg_161" opacity="0.1" points="745.62 454.9 743.26 489.97 736.65 477.96 741.72 447.54 745.62 454.9"/>
  <path id="svg_162" fill="#dce0ed" d="m575.57,458.24s-9.46,-70.65 25,-81.22a8.74,8.74 0 0 1 1.35,-0.28c7.93,-0.95 81.8,-9.47 120.15,0.65c0,0 26.2,3.95 25.92,18l-11.62,172.14l-18.87,0l6.19,-113.8s9,-49.58 -5.91,-53s-82.82,-9 -106.76,-2.25c0,0 -17.47,-3.95 -14.65,39.15l-1.13,23.1l-19.67,-2.49z"/>
  <path id="svg_163" fill="#6c63ff" d="m632.99,479.22a10.88,10.88 0 0 0 -4.44,-9.72c-5.28,-4 -21.55,-12.67 -21.55,-12.67l-5.28,0.42l-15.84,39.3l1.05,83.45l28.52,35.28l17.54,-136.06z"/>
  <path id="svg_164" opacity="0.1" d="m632.99,479.22a10.88,10.88 0 0 0 -4.44,-9.72c-5.28,-4 -21.55,-12.67 -21.55,-12.67l-5.28,0.42l-15.84,39.3l1.05,83.45l28.52,35.28l17.54,-136.06z"/>
  <path id="svg_165" fill="#6c63ff" d="m519.19,566.69l0.56,-85.64s-2.53,-33.24 17.33,-33.8c0,0 46.83,0.34 67.18,6.95a4.54,4.54 0 0 1 2.56,6.56c-4,7.05 -10.88,25.72 -14.18,73.6l0,51.34l-73.45,-19.01z"/>
  <polygon id="svg_166" fill="#6c63ff" points="617.99 621.41 532.77 619.42 532.69 619.42 490.81 618.45 495.66 562.46 518.9 563.31 592.85 579.79 615.45 615.28 617.99 621.41"/>
  <polygon id="svg_167" opacity="0.1" points="617.99 621.41 532.77 619.42 532.69 619.42 490.81 618.45 495.66 562.46 518.9 563.31 592.85 579.79 615.45 615.28 617.99 621.41"/>
  <polygon id="svg_168" fill="#6c63ff" points="617.99 621.41 532.77 619.42 531.37 581.9 592.85 579.79 615.45 615.28 617.99 621.41"/>
  <path id="svg_169" opacity="0.1" fill="#fff" d="m532.69,619.42l-41.88,-1l4.86,-56s13.1,20.92 35.7,19.44l1.32,37.56z"/>
  <path id="svg_170" fill="#dce0ed" d="m833.27,664.71c-1.69,16.06 -13.1,13.52 -13.1,13.52l-2.13,-0.19l-21.11,-1.92l0.85,-24.93s11.49,-0.78 21.41,1.29c7.92,1.64 14.83,5.1 14.08,12.23z"/>
  <path id="svg_171" fill="#4c4981" d="m540.03,421.34s-38.87,17.73 -41.69,22.81s-22,27 -22,27l8.31,14l38.45,-30.57l16.93,-33.24z"/>
  <path id="svg_172" fill="#ceddf9" d="m510.41,511.99l-18,-2.69l-13.24,15.62s-18.45,9.15 -20.6,13.15s-8.86,15.72 -11.82,15.81s-5.73,4.41 -5.75,6.12s-11.27,21.35 -14.06,22.48s-7.63,7.51 -7.51,8.77s-10.5,13.82 -10.5,13.82s-18,28.17 -20.68,29.07s-13.05,19.09 -15.68,21.25s-10,4.1 -9.1,5.85s19,26.49 17.9,33.5c0,0 13.47,-10.66 14,-13.94s17.2,-20.58 17.2,-20.58l87.31,-90.68l16.83,-57.15l-6.3,-0.4z"/>
  <path id="svg_173" opacity="0.1" d="m558.75,541.12s3.59,41.22 -8.31,47.46s-20,5.52 -22.29,8.27s-16.24,5.18 -17.72,7.68s-40.57,24.35 -40.57,24.35s-26.74,15.76 -30.93,19.19s-27,13.46 -30.89,18.18s-28.31,20.19 -28.31,20.19s-7.15,-22 -15.37,-23.93c0,0 19.76,-3.89 20.93,-7s7.07,-6.45 7.07,-6.45s28.13,-16.32 29,-20s7.8,-8.92 7.8,-8.92s11.17,-15.27 15.28,-16.74s28.48,-26.49 28.48,-26.49s16.57,-8.76 18.41,-11.64s33.24,-19.2 33.24,-19.2l-35.79,-44.47l11.32,-3.48l33.53,9l6,10.87l19.12,23.13z"/>
  <path id="svg_174" fill="#ceddf9" d="m560.77,541.72s3.6,41.22 -8.3,47.46s-20,5.53 -22.3,8.27s-16.24,5.19 -17.72,7.68s-40.56,24.36 -40.56,24.36s-26.74,15.75 -30.94,19.15s-27,13.47 -30.89,18.19s-28.31,20.18 -28.31,20.18s-7.18,-21.94 -15.37,-23.94c0,0 19.77,-3.88 20.93,-7s7.07,-6.46 7.07,-6.46s28.13,-16.32 29,-20s7.81,-8.93 7.81,-8.93s11.17,-15.27 15.28,-16.73s28.47,-26.5 28.47,-26.5s16.57,-8.76 18.41,-11.64s-14.2,-41 -14.2,-41l11.68,-22.7l11.32,-3.47l33.53,9l6,10.87l19.09,23.21z"/>
  <path id="svg_175" fill="#fec2be" d="m600.57,433.84l-27.35,19s-33.05,-12.26 -20,-17.18c8.56,-3.23 11.64,-19.9 12.74,-31c0.58,-5.78 0.61,-10 0.61,-10s37.29,-0.06 30.43,11.84a18.73,18.73 0 0 0 -2.28,10.76c0.52,8.81 5.85,16.58 5.85,16.58z"/>
  <path id="svg_176" opacity="0.1" d="m594.66,417.27a26.22,26.22 0 0 1 -28.76,-12.57c0.58,-5.78 0.61,-10 0.61,-10s37.29,-0.06 30.43,11.84a18.73,18.73 0 0 0 -2.28,10.73z"/>
  <path id="svg_177" fill="#fec2be" d="m614,398.57a26.28,26.28 0 1 1 0.59,-2.41c-0.16,0.8 -0.35,1.61 -0.59,2.41z"/>
  <path id="svg_178" opacity="0.1" d="m561.48,423.18s-4.59,0 -4.88,6.53s-4.93,6.05 -4.93,6.05l-21.56,22.39s-9.68,23.18 -9.6,24.12s-2.18,4.86 -1.67,6.84s-0.2,8 -2,7.47s-4.8,1.32 -4.76,4.27s-15.15,12 -14.53,14.2s43.25,24.85 43.25,24.85l17.74,13.75l16.56,-30.85l13.8,-42.51l7.67,-24.68l6.35,-7.1l-2.92,-16.66s-2.62,-7.21 -4.76,-6.2s-10,9.5 -17.38,10.24s-11.69,1.64 -13.41,0s-12.17,-2.82 -2.97,-12.71z"/>
  <path id="svg_179" opacity="0.1" d="m562.96,421.01s-5.46,0.16 -5.76,6.68s-4.93,6.05 -4.93,6.05l-21.56,22.39s-9.68,23.17 -9.59,24.12s-2.19,4.85 -1.68,6.84s-0.19,8 -2,7.47s-4.81,1.32 -4.77,4.27s-15.15,12 -14.52,14.2s43.24,24.85 43.24,24.85l17.75,13.75l16.56,-30.86l13.8,-42.51l7.74,-24.67l6.34,-7.1l-2.92,-16.66s-2.62,-7.21 -4.76,-6.2s-10,9.5 -17.37,10.23s-11.69,1.65 -13.41,0s-0.69,-3.51 -2.16,-12.85z"/>
  <path id="svg_180" fill="#fff" d="m562.76,421.68s-5.47,0.16 -5.76,6.68s-4.93,6.06 -4.93,6.06l-21.56,22.38s-9.68,23.18 -9.59,24.12s-2.19,4.86 -1.68,6.84s-0.19,8 -2,7.47s-4.8,1.32 -4.76,4.27s-15.15,12 -14.52,14.2s43.24,24.86 43.24,24.86l17.74,13.74l16.56,-30.85l13.81,-42.51l7.73,-24.68l6.35,-7.1l-2.92,-16.66s-2.62,-7.21 -4.76,-6.19s-10,9.49 -17.37,10.23s-11.7,1.65 -13.42,0s-0.69,-3.47 -2.16,-12.86z"/>
  <path id="svg_181" opacity="0.1" d="m562.95,421.65a40.53,40.53 0 0 1 -7.55,-1.48c-2.64,-1 -12.41,-0.22 -12.41,-0.22s-11.22,0.69 -13.29,3.93s-11,20.77 -14.06,21.87s-21.15,30.22 -24.85,32.78s-19.64,33.79 -19.64,33.79s11.78,-5.56 17.17,2.58c0.14,0.21 0.28,0.42 0.41,0.65c5.18,9.08 10,2.08 10,2.08s17.15,-15.62 18.52,-18.34s11.51,-23.18 14.12,-28.83s24.71,-33.56 25.45,-34.8s6.13,-14.01 6.13,-14.01z"/>
  <path id="svg_182" fill="#4c4981" d="m562.95,421.65a63.27,63.27 0 0 1 -8.89,-1.88c-2.65,-1 -12.42,-0.22 -12.42,-0.22s-11.22,0.69 -13.29,3.92s-11,20.78 -14.06,21.87s-21.15,30.22 -24.85,32.79s-19.64,33.79 -19.64,33.79s11.78,-5.56 17.18,2.58c0.13,0.2 0.27,0.42 0.4,0.65c5.18,9.07 10,2.08 10,2.08s17.16,-15.63 18.52,-18.34s11.51,-23.18 14.12,-28.83s24.71,-33.56 25.45,-34.81s7.48,-13.6 7.48,-13.6z"/>
  <path id="svg_183" opacity="0.1" d="m595.78,422.69s14.18,10.29 16,13.41s20.39,12.88 20.39,12.88s7,12.92 5.95,17.57s-2.16,9.08 -1.25,11.56s1.47,2.46 0.12,5.73s-0.88,3.59 1,6.53s-28,12 -28,12s-4,0.62 -4.43,2.53s-23.34,52.32 -26.65,60.33s-13.77,40 -22.55,40.45s-2,0.12 -2,0.12s1.35,-26 -4.05,-35s5.26,-43.73 5.26,-43.73s35.49,-102.12 40.21,-104.38z"/>
  <path id="svg_184" fill="#4c4981" d="m595.78,422.69s15.53,10.7 17.35,13.81s20.44,12.88 20.44,12.88s7,12.92 5.95,17.57s-2.16,9.09 -1.25,11.56s1.47,2.46 0.12,5.73s-0.89,3.59 1,6.54s-28,12 -28,12s-4,0.63 -4.43,2.53s-23.39,52.34 -26.72,60.34s-13.77,39.95 -22.55,40.42s-2,0.12 -2,0.12s1.35,-26 -4.05,-35s5.35,-43.75 5.35,-43.75s34.07,-102.49 38.79,-104.75z"/>
  <path id="svg_185" fill="#fec2be" d="m613.8,525.62s-31.46,7 -32.44,9s-27,17.51 -13.35,25s35.1,-10.55 35.1,-10.55l17,-10.85l-6.31,-12.6z"/>
  <path id="svg_186" fill="#4c4981" d="m627.86,483.68c0.51,0.15 11.47,7.1 11.47,7.1s5.16,17.14 6.29,21.34s4,11.67 3.81,13.07s3.12,9.19 -2.16,12.75s-10.82,3 -13.36,5.38s-20.05,10 -22.26,10.6s10.92,-26.11 -5.29,-30.22c0,0 11.61,1.09 12.21,-0.94s1.27,-7.33 -0.9,-9.26s-11.54,-11.16 -11.54,-11.16l21.73,-18.66z"/>
  <path id="svg_187" opacity="0.1" d="m614.57,396.16a7.22,7.22 0 0 1 -3.13,-3.28c-1.07,-2.08 -2.14,-4.62 -4.42,-5.15c-1.28,-0.31 -2.83,0.07 -3.78,-0.84c-0.74,-0.72 -0.72,-1.89 -0.73,-2.92a11.88,11.88 0 0 0 -1.91,-6.63a6.94,6.94 0 0 0 -5.93,-3.09c-3.25,0.22 -6.08,3.18 -9.28,2.59c-1.41,-0.26 -2.76,-1.21 -4.14,-0.84a4.07,4.07 0 0 0 -1.46,0.82a21.27,21.27 0 0 0 -6.67,9c-1.32,3.36 -1.76,7 -3.34,10.29c-0.63,1.28 -1.84,2.65 -3.2,2.25c-2.12,-0.63 -1,-3.3 -2.18,-4.47a3.23,3.23 0 0 0 -1.67,-0.67a26.21,26.21 0 1 1 51.84,2.94z"/>
  <path id="svg_188" fill="#9a5e7f" d="m566.8,397.68c1.36,0.4 2.57,-1 3.2,-2.24c1.58,-3.25 2,-6.93 3.34,-10.29a21.23,21.23 0 0 1 6.68,-9a4.06,4.06 0 0 1 1.45,-0.83c1.38,-0.36 2.74,0.58 4.14,0.84c3.2,0.6 6,-2.37 9.28,-2.59a6.94,6.94 0 0 1 5.93,3.1a11.74,11.74 0 0 1 1.91,6.62c0,1 0,2.2 0.74,2.92c0.94,0.92 2.49,0.54 3.78,0.84c2.28,0.54 3.34,3.07 4.42,5.15s3.25,4.26 5.42,3.36c0.65,-0.27 1.18,-0.8 1.85,-1c1.23,-0.41 2.7,0.26 3.8,-0.42c1.4,-0.86 1,-3 0.09,-4.43s-2,-3 -1.43,-4.53a6.14,6.14 0 0 1 1.51,-1.94a9.61,9.61 0 0 0 -0.58,-13.19c-0.89,-0.8 -1.93,-1.42 -2.8,-2.24c-1.75,-1.64 -2.68,-3.94 -4,-6a18.28,18.28 0 0 0 -6.37,-6a9.1,9.1 0 0 0 -3.7,-1.29c-1.81,-0.14 -3.59,0.54 -5.4,0.72c-6.06,0.61 -11.27,-4.18 -17.2,-5.54a4.88,4.88 0 0 0 -4.07,0.48c-1.18,0.92 -1.43,2.57 -2,4c-1.19,3.06 -4.07,5.2 -7.13,6.38c-3.53,1.35 -8,2.08 -9.47,5.55c-1.28,3 0.38,6.44 -0.29,9.6c-0.52,2.47 -2.37,4.4 -3.8,6.48s-2.48,4.88 -1.24,7.08a6.3,6.3 0 0 0 3.24,2.53c1.66,0.68 5.36,0.32 6.48,1.42s0.1,3.85 2.22,4.46z"/>
  <path id="svg_189" opacity="0.1" d="m626.04,513.73c0.6,0.06 11.53,2 14.1,5.68s-14.1,-5.68 -14.1,-5.68z"/>
  <path id="svg_190" opacity="0.1" d="m620.57,502.07s11.92,2.7 13.3,3.85s-13.3,-3.85 -13.3,-3.85z"/>
  <path id="svg_191" opacity="0.1" d="m624.49,472.64s8.77,3.84 9.77,6.22s-9.77,-6.22 -9.77,-6.22z"/>
  <path id="svg_192" opacity="0.1" d="m512.41,572.07c0.91,0.64 22.45,16.62 20.69,17.2s-20.69,-17.2 -20.69,-17.2z"/>
  <path id="svg_193" opacity="0.1" d="m512.25,582.07s12.62,6.1 10.51,8.65s-10.51,-8.65 -10.51,-8.65z"/>
  <g id="svg_194" opacity="0.1">
   <path id="svg_195" d="m560.36,374.36c0.57,-2.71 -0.57,-5.64 -0.1,-8.3c0,0 0,0 0,0.05c-1.26,2.92 0.33,6.33 -0.26,9.45a8.36,8.36 0 0 0 0.36,-1.2z"/>
   <path id="svg_196" d="m621.8,383.81a2.57,2.57 0 0 0 -0.14,0.82a11.07,11.07 0 0 1 1.25,-1.41a8.72,8.72 0 0 0 2.11,-4.14a8.47,8.47 0 0 1 -1.71,2.79a6.14,6.14 0 0 0 -1.51,1.94z"/>
   <path id="svg_197" d="m623.15,392.77c-1.1,0.68 -2.58,0 -3.81,0.42c-0.67,0.23 -1.2,0.75 -1.85,1c-2.17,0.9 -4.35,-1.27 -5.42,-3.35s-2.14,-4.62 -4.42,-5.16c-1.28,-0.3 -2.84,0.08 -3.78,-0.84c-0.74,-0.71 -0.72,-1.88 -0.74,-2.91a11.85,11.85 0 0 0 -1.9,-6.63a7,7 0 0 0 -5.94,-3.1c-3.24,0.22 -6.07,3.19 -9.27,2.6c-1.41,-0.27 -2.77,-1.21 -4.15,-0.85a4.21,4.21 0 0 0 -1.45,0.83a21.23,21.23 0 0 0 -6.68,9a30.38,30.38 0 0 0 -1,2.93c0.17,-0.53 0.35,-1.06 0.56,-1.58a21.23,21.23 0 0 1 6.68,-9a4.06,4.06 0 0 1 1.45,-0.83c1.38,-0.36 2.74,0.58 4.14,0.84c3.2,0.6 6,-2.37 9.28,-2.59a6.94,6.94 0 0 1 5.93,3.1a11.74,11.74 0 0 1 1.91,6.62c0,1 0,2.2 0.74,2.92c0.94,0.92 2.49,0.54 3.78,0.84c2.28,0.54 3.34,3.07 4.42,5.15s3.25,4.26 5.42,3.36c0.65,-0.27 1.18,-0.8 1.85,-1c1.23,-0.41 2.7,0.26 3.8,-0.42a2,2 0 0 0 0.9,-1.8a1.77,1.77 0 0 1 -0.45,0.45z"/>
   <path id="svg_198" d="m570.4,394.07c-0.62,1.28 -1.84,2.64 -3.2,2.24c-2.12,-0.62 -1,-3.29 -2.17,-4.46s-4.82,-0.74 -6.48,-1.42a6.34,6.34 0 0 1 -3.24,-2.53a4.79,4.79 0 0 1 -0.42,-3.39a5.47,5.47 0 0 0 0,4.74a6.3,6.3 0 0 0 3.24,2.53c1.66,0.68 5.36,0.32 6.48,1.42s0.05,3.84 2.17,4.46c1.36,0.4 2.57,-1 3.2,-2.24a26.15,26.15 0 0 0 1.55,-4.32a21.44,21.44 0 0 1 -1.13,2.97z"/>
  </g>
  <path id="svg_199" opacity="0.1" d="m525.78,444.37s-8.61,12.85 -7.58,15.54s7.58,-15.54 7.58,-15.54z"/>
  <path id="svg_200" opacity="0.1" d="m527.04,486.24s4.57,1.91 6.24,3.7s-6.24,-3.7 -6.24,-3.7z"/>
  <path id="svg_201" opacity="0.1" d="m537.08,499.34s9.76,2.36 10.59,3.89s-10.59,-3.89 -10.59,-3.89z"/>
  <path id="svg_202" opacity="0.1" d="m538.78,512.7s8.83,1.16 9.83,4.58s-9.83,-4.58 -9.83,-4.58z"/>
  <path id="svg_203" opacity="0.1" d="m833.27,664.71c-1.69,16.06 -13.1,13.52 -13.1,13.52l-2.13,-0.19a21.57,21.57 0 0 1 -3.36,-12.06c0,-5.59 1.78,-10.53 4.51,-13.5c7.92,1.64 14.83,5.1 14.08,12.23z"/>
  <path id="svg_204" fill="#636780" d="m506.79,454.29c-19.29,0 -34.92,21.13 -34.92,47.19s15.63,47.18 34.92,47.18s34.93,-21.13 34.93,-47.18s-15.63,-47.19 -34.93,-47.19zm-4.93,84.51c-14.7,0 -26.61,-15.32 -26.61,-34.23s11.91,-34.22 26.61,-34.22s26.62,15.32 26.62,34.22s-11.91,34.23 -26.62,34.23z"/>
  <polygon id="svg_205" fill="#636780" points="508.48 515.99 524.82 532.04 530.73 517.67 507.07 503.87 508.48 515.99"/>
  <polygon id="svg_206" fill="#6c63ff" points="532.57 357.07 546.79 358.8 552.07 365.07 544.07 401.07 527.07 459.07 515.91 498.89 508.07 523.07 503.07 555.07 498.07 577.07 483.07 592.07 452.57 556.07 447.57 544.07 435.57 519.57 466.57 505.07 500.57 502.07 516.57 461.07 529.57 413.57 532.57 357.07"/>
  <polyline id="svg_207" fill="#6c63ff" points="244.82 528.66 226.23 684.72 460.31 674.86 433.27 598.24 388.2 568.94 491.3 570.63 491.86 527.82 450.17 518.8 366.23 512.04 303.13 509.23 242.85 528.94"/>
  <polyline id="svg_208" opacity="0.1" points="244.82 528.66 226.23 684.72 460.31 674.86 433.27 598.24 388.2 568.94 491.3 570.63 491.86 527.82 450.17 518.8 366.23 512.04 303.13 509.23 242.85 528.94"/>
  <path id="svg_209" fill="#636780" d="m564.63,684.18c0,38.78 -12.89,74.08 -48.64,70.22c-45.09,-1 -48.63,-31.44 -48.63,-70.22s21.77,-67.64 48.63,-67.64s48.64,28.86 48.64,67.64z"/>
  <path id="svg_210" opacity="0.1" d="m564.91,684.25c0,-30 -13.05,-54.1 -31.41,-63.44c-23.58,4.48 -41.7,31.6 -41.7,67c0,31.78 2.38,58 28.06,66.93c33.03,1.17 45.05,-33.04 45.05,-70.49z"/>
  <polygon id="svg_211" fill="#6c63ff" points="610.57 623.32 596.82 639.07 621.57 634.82 640.07 617.82 656.57 584.82 679.82 570.57 736.82 578.32 789.57 580.32 809.04 563.03 787.32 560.07 765.32 559.57 710.07 558.32 644.32 556.57 630.82 592.57 620.57 617.32 610.57 623.32"/>
  <path id="svg_212" fill="#6c63ff" d="m799.75,687.53c-1.13,1.69 -38,7.33 -38,7.33l-102,18.59l-175.18,2.53l-20.56,-17.47l-10.8,1.92l-0.44,0.08l-144.28,25.61l-2.35,-0.33l-39.32,-5.61l-205.37,-29.27l2.3,-29.81l1.36,-17.6l2.81,-36.53l2,-9.58l18.29,-1.68l8.54,-0.78l133.29,-12.23l17.43,-1.6l9.77,-0.89l95.21,-13l138.87,3.38l0.56,-42.82l54.93,-169c12.11,2 11.83,10.14 11.83,10.14l-46.77,159.16l-0.57,97.75c97.25,9.82 100.39,-11.37 115.77,-4.23l18.6,-59.43l163.37,0.85c6.53,7.9 -9.29,124.52 -9.29,124.52z"/>
  <polygon id="svg_213" fill="#6c63ff" points="394.4 598.8 446.23 710.07 463.69 715.7 467.92 697.67 448.48 635.98 428.48 600.21 394.4 598.8"/>
  <polygon id="svg_214" opacity="0.15" points="394.4 598.8 446.23 710.07 463.69 715.7 467.92 697.67 448.48 635.98 428.48 600.21 394.4 598.8"/>
  <ellipse id="svg_215" fill="#636780" ry="106.48" rx="93.87" cy="721.33" cx="360.66"/>
  <path id="svg_216" opacity="0.1" d="m394.15,621.5c-49.12,3.42 -88,49.68 -88,106.26c0,45.61 25.28,84.52 60.81,99.68c49.12,-3.42 88,-49.68 88,-106.26c0,-45.61 -25.28,-84.52 -60.81,-99.68z"/>
  <path id="svg_217" fill="#6c63ff" d="m109.05,535.14l-4.65,21.93l-14.22,67.11l-61.13,-5.92s-3.66,-11.26 5.92,-15.49c0,0 3.14,-38.13 14.44,-50.14a11.39,11.39 0 0 1 4.43,-3.09l55.21,-14.4z"/>
  <path id="svg_218" opacity="0.1" fill="#fff" d="m104.4,557.07l-14.22,67.11l-61.13,-5.92s-3.66,-11.26 5.92,-15.49c0,0 3.14,-38.13 14.44,-50.14l54.99,4.44z"/>
  <path id="svg_219" fill="#6c63ff" d="m244.8,541.07c7.88,13.22 -11.23,135.19 -11.23,135.19l-150.18,-24.79l5.35,-106.76c3.1,-19.15 14.37,-21.4 14.37,-21.4c53,-26.76 174.64,-32.4 174.64,-32.4c111,4.22 212.11,36.9 212.11,36.9c-126.19,-19.43 -245.06,13.26 -245.06,13.26z"/>
  <path id="svg_220" opacity="0.1" d="m235.57,676.26l-150.18,-24.79l5.35,-106.76c3.1,-19.15 14.37,-21.4 14.37,-21.4s109.57,-10.43 141.69,17.76c7.88,13.22 -11.23,135.19 -11.23,135.19z"/>
  <path id="svg_221" fill="#6c63ff" d="m219.66,669.22l-125.54,-21.15l4.45,-91.09c2.59,-16.34 12,-18.26 12,-18.26s91.62,-8.9 118.47,15.14c6.63,11.29 -9.38,115.36 -9.38,115.36z"/>
  <ellipse id="svg_222" opacity="0.1" ry="31.27" rx="17.18" cy="594.29" cx="209.33"/>
  <ellipse id="svg_223" fill="#dce0ed" ry="31.27" rx="17.18" cy="593.45" cx="209.33"/>
  <path id="svg_224" fill="#f0f0f4" d="m211.57,570.35s-7,1.12 -3.38,10.42s4.22,14.08 4.22,14.08s7,3.67 6.76,-8.45s-7.6,-16.05 -7.6,-16.05z"/>
  <ellipse id="svg_225" opacity="0.1" ry="29.22" rx="16.06" cy="581.9" cx="117.22"/>
  <ellipse id="svg_226" fill="#dce0ed" ry="29.22" rx="16.06" cy="581.05" cx="117.22"/>
  <path id="svg_227" fill="#f0f0f4" d="m119.47,557.95s-7,1.13 -3.38,10.43s4.23,14.08 4.23,14.08s7,3.66 6.76,-8.45s-7.61,-16.06 -7.61,-16.06z"/>
  <path id="svg_228" opacity="0.1" d="m189.57,567.81c-1.12,11.55 -6.76,97.18 -6.76,97.18l-9.56,-1.6l-5.31,-0.87l-7.08,-1.19l-0.86,-0.14l-27.89,-4.65l5.51,-90.83a11.36,11.36 0 0 1 11.54,-10.64a8.06,8.06 0 0 1 0.85,0c1.93,0.17 4,0.37 6.17,0.61c0.91,0.1 1.84,0.2 2.77,0.32c2.68,0.32 5.45,0.71 8.16,1.15c1.38,0.24 2.74,0.49 4.09,0.75c2.27,0.45 4.47,0.95 6.5,1.52c1.37,0.38 2.68,0.79 3.88,1.24c5.04,1.82 8.33,4.17 7.99,7.15z"/>
  <path id="svg_229" fill="#6c63ff" d="m149.16,555.07l-5.46,102l-3.1,-0.28l5.41,-101.41a11.29,11.29 0 0 1 3.15,-0.31z"/>
  <path id="svg_230" fill="#6c63ff" d="m158.95,555.99l-5.11,103.08l-4.79,0l7.13,-103.41c0.91,0.11 1.84,0.21 2.77,0.33z"/>
  <path id="svg_231" fill="#6c63ff" d="m171.2,557.89l-8.06,103.44l-3.11,0l0,-0.14l7.07,-104c1.39,0.19 2.75,0.44 4.1,0.7z"/>
  <path id="svg_232" fill="#6c63ff" d="m181.57,560.65l-8.29,102.74l0,0.2l-5.35,-0.57l0,-0.5l9.72,-103.11c1.42,0.38 2.73,0.79 3.92,1.24z"/>
  <path id="svg_233" opacity="0.1" d="m67.01,640.21s-10.35,-53.45 13.31,-56.2s101.41,3 99.08,24.93s-4.83,55.35 -4.83,55.35l-16.05,-3.59s12,-50.28 -6.76,-52.18s-64.86,-7.19 -64.86,-7.19s-12.47,-2.11 -5.28,42l-14.61,-3.12z"/>
  <path id="svg_234" fill="#dce0ed" d="m67.01,645.28s-10.35,-56.83 13.31,-59.58s101.41,3 99.08,24.93s-4.83,55.35 -4.83,55.35l-16.05,-3.59s12,-50.28 -6.76,-52.18s-64.89,-7.14 -64.89,-7.14s-12.47,1.27 -5.28,45.43l-14.58,-3.22z"/>
  <path id="svg_235" fill="#6c63ff" d="m484.57,715.98l-20.84,-0.28c-15.21,-67 -40.29,-108.73 -40.29,-108.73c-8.48,-4.51 -100.87,-3.9 -100.87,-3.9c-9.58,1.69 -12.11,32.12 -12.11,32.12s8.17,7 0.28,11.55c-3.52,2 -15.12,2.39 -28.48,1.7c-16.58,-0.86 -35.9,-3.38 -45.88,-6.49c-18,-5.64 -3.67,-16.06 -3.67,-16.06s2.54,-3.38 4.23,-22a75.25,75.25 0 0 1 10.28,-30.69c0.78,-1.29 1.27,-2 1.27,-2a9.65,9.65 0 0 1 3.29,-2.06c23.88,-10 140.93,-0.48 140.93,-0.48l43.38,13.81c1.2,0.48 3.05,3.54 5.33,8.43c13.71,29.39 43.15,125.08 43.15,125.08z"/>
  <path id="svg_236" opacity="0.1" d="m484.57,715.98l-20.84,-0.28c-15.21,-67 -40.29,-108.73 -40.29,-108.73c-8.48,-4.51 -100.87,-3.9 -100.87,-3.9c-9.58,1.69 -12.11,32.12 -12.11,32.12s8.17,7 0.28,11.55c-3.52,2 -15.12,2.39 -28.48,1.7c-16.58,-0.86 -35.9,-3.38 -45.88,-6.49c-18,-5.64 -3.67,-16.06 -3.67,-16.06s2.54,-3.38 4.23,-22a75.25,75.25 0 0 1 10.28,-30.69c0.78,-1.29 1.27,-2 1.27,-2a9.65,9.65 0 0 1 3.29,-2.06c23.88,-10 140.93,-0.48 140.93,-0.48l43.38,13.81c1.2,0.48 3.05,3.54 5.33,8.43c13.71,29.39 43.15,125.08 43.15,125.08z"/>
  <path id="svg_237" fill="#6c63ff" d="m441.42,590.89c-40,-15.56 -150.4,-7.3 -150.4,-7.3c-11.72,-10 -33.77,-10.68 -43.8,-10.41c0.78,-1.29 1.27,-2 1.27,-2a9.65,9.65 0 0 1 3.29,-2.06c23.88,-10 140.93,-0.48 140.93,-0.48l43.38,13.81c1.2,0.49 3.05,3.55 5.33,8.44z"/>
  <path id="svg_238" fill="#6c63ff" d="m297.5,587.81c-2.53,8.73 -12.93,43.67 -12.93,43.67a147.84,147.84 0 0 0 -2.29,16.91c-16.58,-0.86 -35.9,-3.38 -45.88,-6.49c-18,-5.64 -3.67,-16.06 -3.67,-16.06s2.54,-3.38 4.23,-22a74.87,74.87 0 0 1 11.55,-32.68a9.65,9.65 0 0 1 3.29,-2.06c15.64,3.72 47.62,12.1 45.7,18.71z"/>
  <path id="svg_239" opacity="0.1" fill="#fff" d="m297.5,587.81c-2.53,8.73 -12.93,43.67 -12.93,43.67a147.84,147.84 0 0 0 -2.29,16.91c-16.58,-0.86 -35.9,-3.38 -45.88,-6.49c-18,-5.64 -3.67,-16.06 -3.67,-16.06s2.54,-3.38 4.23,-22a74.87,74.87 0 0 1 11.55,-32.68a9.65,9.65 0 0 1 3.29,-2.06c15.64,3.72 47.62,12.1 45.7,18.71z"/>
  <path id="svg_240" fill="#6c63ff" d="m323.28,365.98c-11.2,1.69 -16.06,24.93 -16.06,24.93l-30.42,101.62l215.06,35.28l54.93,-169c-50.49,-22.83 -223.51,7.17 -223.51,7.17zm173,108.59s-1.27,9.72 -9.51,10.57l-139.43,-5.45l-28.6,-1.13l-9.59,-0.37l-0.68,0s-10.57,1.9 -8.88,-7c0,0 11.62,-84.5 32.12,-90.84c0,0 2.13,-0.45 5.86,-1.15c5.86,-1.11 15.64,-2.85 27.16,-4.44c5.16,-0.71 10.67,-1.39 16.34,-2c15.49,-1.58 32.14,-2.43 45.92,-1.1c0,0 102.67,-9.51 95.28,13.31c0.02,0.03 -21.53,82.63 -25.97,89.6l-0.02,0z"/>
  <path id="svg_241" fill="#6c63ff" d="m309.17,478.19l-0.68,0s-10.57,1.9 -8.88,-7c0,0 11.62,-84.5 32.12,-90.84c0,0 2.13,-0.45 5.86,-1.15c-7.44,14.52 -31.32,64.23 -28.42,98.99z"/>
  <path id="svg_242" opacity="0.1" d="m309.17,478.19l-0.68,0s-10.57,1.9 -8.88,-7c0,0 11.62,-84.5 32.12,-90.84c0,0 2.13,-0.45 5.86,-1.15c-7.44,14.52 -31.32,64.23 -28.42,98.99z"/>
  <path id="svg_243" opacity="0.1" d="m328.1,686.62a13.6,13.6 0 0 1 -12.73,7.14l-4.31,-0.19l-40.61,-1.75l-14.64,-0.63l-13.52,-1.12l-178.54,-29l1.36,-17.6l20.53,2.94l8.5,1.22l126.05,18l16.59,2.44l8.05,1.15l34.09,-0.25l36.9,-0.27a13.88,13.88 0 0 1 5.44,1a13.23,13.23 0 0 1 7.15,6.79a11.11,11.11 0 0 1 -0.31,10.13z"/>
  <path id="svg_244" fill="#dce0ed" d="m328.1,688.31a13.6,13.6 0 0 1 -12.73,7.14l-59.56,-2.57l-13.52,-1.13l-190.4,-30.89l-15,-2.43l-8.12,-1.36c-16.05,-3.38 -11.26,-19.44 -11.26,-19.44c1.12,-7.33 28.73,-14.09 37.74,-13.8c6.06,0.19 6.9,9.52 6.8,15.63c0,3 -0.32,5.21 -0.32,5.21l8.91,1.28l174.19,24.92l71,-0.52a13.64,13.64 0 0 1 12.59,7.84a11.11,11.11 0 0 1 -0.32,10.12z"/>
  <path id="svg_245" opacity="0.1" d="m42.29,634.01s7.61,9.29 19.44,10.7c0,0 -4.79,-10.42 -19.44,-10.7z"/>
  <path id="svg_246" opacity="0.1" d="m40.32,660.21s-25.07,-0.57 -25.07,13s15.78,15.78 15.78,15.78l223.94,43.08l63.66,1.12s22.25,-17.74 -0.85,-25.63l-64.21,1.66l-213.53,-39.15s5.63,-7.61 0.28,-9.86z"/>
  <path id="svg_247" fill="#dce0ed" d="m318.63,734.85l-63.66,-1.12l-199.12,-38.32l-14.57,-2.81l-10.25,-2s-15.78,-2.26 -15.78,-15.78c0,-9.7 12.92,-12.15 20.21,-12.76c2.87,-0.23 4.86,-0.19 4.86,-0.19c5.35,2.25 -0.28,9.85 -0.28,9.85l7.77,1.43l205.76,37.76l64.22,-1.69c23.09,7.85 0.84,25.63 0.84,25.63z"/>
  <path id="svg_248" fill="#dce0ed" d="m59.19,649.22l13.24,-5.92l6.76,-0.28l-0.56,56.9l-20.84,-4.22l-8.74,-5.63l-4.22,-23.66s1.69,-9.86 2.53,-10.7s11.83,-6.49 11.83,-6.49z"/>
  <path id="svg_249" opacity="0.1" d="m59.19,649.22l13.24,-5.92l6.76,-0.28l-0.56,56.9l-20.84,-4.22l-8.74,-5.63l-4.22,-23.66s1.69,-9.86 2.53,-10.7s11.83,-6.49 11.83,-6.49z"/>
  <path id="svg_250" opacity="0.1" d="m55.85,695.41l0.24,0.29l-14.64,-2.82l-0.17,-0.28c-7.71,-12.45 -8.38,-22.53 -5.82,-30.53c2.87,-0.23 4.86,-0.19 4.86,-0.19c5.35,2.25 -0.28,9.85 -0.28,9.85l7.77,1.43c-0.52,11.16 6.61,20.49 8.04,22.25z"/>
  <path id="svg_251" opacity="0.1" d="m77.51,643.07q-3.72,1.42 -6.87,3c-9.48,4.56 -15.33,9.68 -18.75,14.87l-15,-2.43c6.49,-13.48 22,-19.64 22,-19.64l3.14,0.71l15.48,3.49z"/>
  <path id="svg_252" fill="#dce0ed" d="m60.57,638.8s-41.12,16.34 -17.46,54.08l14.65,2.82s-29,-33.24 21.4,-52.68l-18.59,-4.22z"/>
  <polygon id="svg_253" fill="#dce0ed" points="158.63 657.11 173.84 656.55 171.3 717.67 146.79 713.17 136.37 708.1 131.58 695.98 128.2 683.87 136.37 672.88 145.67 666.69 158.63 657.11"/>
  <polygon id="svg_254" opacity="0.1" points="158.63 657.11 173.84 656.55 171.3 717.67 146.79 713.17 136.37 708.1 131.58 695.98 128.2 683.87 136.37 672.88 145.67 666.69 158.63 657.11"/>
  <ellipse id="svg_255" fill="#dce0ed" ry="12.39" rx="7.32" cy="688.66" cx="156.94"/>
  <path id="svg_256" fill="#dce0ed" d="m103.77,723.23c-2.11,-10.77 -10.35,-13.1 -10.35,-13.1s-15.85,-4.64 -16.27,12.94c0,0 0.21,10.78 7.4,14.16l0.42,12s0.63,11.2 -5.71,10.14s-5.49,-11 -5.49,-11s-3.38,-10.56 -11.62,-5.07c0,0 -1.9,5.92 2.33,8.88c2.46,1.72 2.55,5.24 2.2,7.88a11.46,11.46 0 0 0 2.64,9.18a10.65,10.65 0 0 0 10.16,3.64a15.76,15.76 0 0 0 8.8,-5.06a23.08,23.08 0 0 0 6.1,-15.39l0.31,-15.46s11.19,-2.96 9.08,-13.74zm-13,10.88a9,9 0 1 1 9,-9a9,9 0 0 1 -8.99,8.96l-0.01,0.04z"/>
  <path id="svg_257" fill="#636780" d="m87.09,705.48a4,4 0 0 0 -2,5.55c1.66,3.11 3.65,7.13 3.46,8.19c-0.32,1.79 3.7,0.32 4.22,-0.11s7.82,0 8.24,-5s-3.9,-7.61 -3.9,-7.61l1.69,-10.88l-10,-0.84l0.11,9.93l-1.82,0.77z"/>
  <path id="svg_258" opacity="0.1" d="m87.09,705.48a4,4 0 0 0 -2,5.55c1.66,3.11 3.65,7.13 3.46,8.19c-0.32,1.79 3.7,0.32 4.22,-0.11s7.82,0 8.24,-5s-3.9,-7.61 -3.9,-7.61l1.69,-10.88l-10,-0.84l0.11,9.93l-1.82,0.77z"/>
  <path id="svg_259" opacity="0.1" d="m89.83,705.28s3.38,11.62 1.9,12s-1.9,-12 -1.9,-12z"/>
  <path id="svg_260" opacity="0.1" d="m93.63,702.53s3.38,11.62 1.9,12s-1.9,-12 -1.9,-12z"/>
  <path id="svg_261" fill="#636780" d="m134.13,667.53l-5.64,34.93s-7,-0.95 -10.82,-1.78a7.8,7.8 0 0 1 -2.42,-0.75c-0.2,-0.2 -0.61,-0.18 -1.16,-0.07l0,0c-1.88,0.38 -5.22,1.93 -5.87,0.62a0.93,0.93 0 0 0 -0.19,-0.27l0,0c-0.66,-0.72 -1.94,-0.2 -3.18,0a2.7,2.7 0 0 1 -2,-0.26c-1,-0.7 -3.15,0.42 -4.87,0.79c-1.09,0.24 -2,0.19 -2.46,-0.79a2.27,2.27 0 0 0 -1.68,-1.2l0,0c-1.62,-0.41 -3.89,-0.13 -5.2,-0.41c-0.52,-0.1 -0.87,-0.3 -1,-0.65c-0.26,-0.76 -1.71,-1.12 -3.26,-1.42c-1.89,-0.36 -3.92,-0.63 -4.07,-1.39c0,-0.26 -0.23,-0.37 -0.51,-0.38a17.46,17.46 0 0 0 -3.08,0.76l0,0c-0.84,0.22 -1.55,0.22 -1.75,-0.38s-1.19,-0.6 -2.3,-0.33c-0.89,0.22 -1.88,0.57 -2.64,0.75s-1.18,0.18 -1.26,-0.15c-0.28,-1.12 -3.94,1.42 -4.78,-0.84s-12.42,-17.24 2.58,-36.64c0,0 4,0.28 7.12,0.84a11.17,11.17 0 0 1 3,0.84l0,0c1.07,0.61 3.36,0.48 5.43,0.63a7,7 0 0 1 3,0.72a2,2 0 0 1 0.85,0.9c0.47,1.07 1.55,1.29 2.73,1.23c1.6,-0.1 3.38,-0.7 4,-0.38l0.06,0c1.18,0.51 5.6,0 6.35,0.75l0.06,0.07c0.32,0.47 2,0 3.82,-0.26l0,0c1.37,-0.18 2.75,-0.2 3.5,0.55a3.82,3.82 0 0 0 2.74,0.81a16.13,16.13 0 0 1 3.59,0.14a1.53,1.53 0 0 1 0.71,0.45c0.71,0.89 2.43,0.77 4,0.85a4.08,4.08 0 0 1 2.24,0.56a2.1,2.1 0 0 0 0.81,0.34c2.16,0.5 6.79,-0.34 6.79,-0.34l6.76,1.16z"/>
  <path id="svg_262" opacity="0.1" d="m72.67,694.53c-0.89,0.22 -1.88,0.57 -2.64,0.75c-11.44,-17.75 -1.81,-31.23 3.61,-36.77a11.17,11.17 0 0 1 3,0.84c-11.51,13.26 -6.17,29.82 -3.97,35.18z"/>
  <path id="svg_263" opacity="0.1" d="m79.81,694.48a17.46,17.46 0 0 0 -3.08,0.76l0,0c-9.79,-17.31 0.28,-30.26 5.37,-35.25a7,7 0 0 1 3,0.72c-10.95,11.98 -7.7,26.89 -5.29,33.77z"/>
  <path id="svg_264" opacity="0.1" d="m88.64,698.32c-0.52,-0.1 -0.87,-0.3 -1,-0.65c-0.26,-0.76 -1.71,-1.12 -3.26,-1.42c-8.59,-15.68 -0.91,-27.73 4.3,-33.41c1.6,-0.1 3.38,-0.7 4,-0.38l0.06,0c-12.08,13.61 -6.23,30.81 -4.1,35.86z"/>
  <path id="svg_265" opacity="0.1" d="m97.99,700.72c-1.09,0.24 -2,0.19 -2.46,-0.79a2.27,2.27 0 0 0 -1.68,-1.2l0,0c-10,-17.47 0.2,-30.53 5.29,-35.5l0.06,0.07c0.32,0.47 2,0 3.82,-0.26c-14.24,14.37 -6.92,33.45 -5.03,37.68z"/>
  <path id="svg_266" opacity="0.1" d="m108.01,700.2c-0.66,-0.72 -1.94,-0.2 -3.18,0c-10.44,-17.34 -0.85,-30.44 4.43,-35.79a16.13,16.13 0 0 1 3.59,0.14c-12.19,13.11 -7.16,29.82 -4.84,35.65z"/>
  <path id="svg_267" opacity="0.1" d="m117.67,700.68a7.8,7.8 0 0 1 -2.42,-0.75c-0.2,-0.2 -0.61,-0.18 -1.16,-0.07l0,0c-9.25,-15.84 -1.87,-28.07 3.44,-34a4.08,4.08 0 0 1 2.24,0.56a2.1,2.1 0 0 0 0.81,0.34c-10.12,13.04 -5.01,28.76 -2.91,33.92z"/>
  <ellipse id="svg_268" fill="#636780" ry="67.6" rx="45.91" cy="726.41" cx="390.74"/>
  <ellipse id="svg_269" opacity="0.1" ry="54.79" rx="33.38" cy="727.39" cx="389.19"/>
  <ellipse id="svg_270" fill="#f0f0f4" ry="54.79" rx="33.38" cy="725.7" cx="389.19"/>
  <ellipse id="svg_271" fill="#636780" ry="6.76" rx="3.94" cy="688.94" cx="395.24"/>
  <ellipse id="svg_272" fill="#636780" ry="6.76" rx="3.94" cy="748.1" cx="411.02"/>
  <ellipse id="svg_273" fill="#636780" ry="6.76" rx="3.94" cy="719.93" cx="368.48"/>
  <ellipse id="svg_274" fill="#636780" ry="6.76" rx="3.94" cy="759.36" cx="380.03"/>
  <path id="svg_275" fill="#6c63ff" d="m726.79,601.33s33,87.89 31.27,93.38c0,0 13.94,8.45 17.32,6.34s0.43,-41 0.43,-41l-6.34,-34.22l-7.19,-20.28l-35.49,-4.22z"/>
  <path id="svg_276" opacity="0.15" d="m726.79,601.33s33,87.89 31.27,93.38c0,0 13.94,8.45 17.32,6.34s0.43,-41 0.43,-41l-6.34,-34.22l-7.19,-20.28l-35.49,-4.22z"/>
  <ellipse id="svg_277" fill="#636780" ry="6.76" rx="3.94" cy="711.48" cx="416.65"/>
  <ellipse id="svg_278" fill="#636780" ry="16.06" rx="11.55" cy="727.81" cx="395.24"/>
  <path id="svg_279" fill="#636780" d="m763.57,718.8c0,50.87 -16.9,97.18 -63.8,92.11c-59.15,-1.27 -63.8,-41.24 -63.8,-92.11s28.54,-88.73 63.78,-88.73s63.82,37.85 63.82,88.73z"/>
  <path id="svg_280" opacity="0.1" d="m763.92,718.88c0,-39.38 -17.12,-71 -41.21,-83.22c-30.93,5.88 -54.7,41.46 -54.7,87.87c0,41.69 3.13,76 36.81,87.8c43.33,1.56 59.1,-43.26 59.1,-92.45z"/>
  <path id="svg_281" opacity="0.1" d="m788.48,697.25s-8.45,7.18 -13.1,2.11c0,0 -11.41,-91.27 -25.77,-91.69l-49.44,-0.42s-5.91,2.53 -8.45,13.52l-32,91l-175.15,2.52l-13.38,-28l144.93,0.42l0,-0.06c0.78,-2.81 25,-89.28 41.27,-100l0,0a7,7 0 0 1 1.79,-0.87s60.42,-8 80.28,-2.54c0,0 20.7,4.65 25.77,11l0,0c0.68,0.71 8.52,9.54 10.95,35l12.3,68.01z"/>
  <path id="svg_282" fill="#6c63ff" d="m788.48,698.94s-8.45,7.18 -13.1,2.11c0,0 -11.41,-91.27 -25.77,-91.69l-49.44,-0.42s-5.91,2.53 -8.45,13.52l-32,91l-175.15,2.52l-13.38,-28l144.93,0.42l0,-0.06c0.78,-2.81 25,-89.28 41.27,-100l0,0a7,7 0 0 1 1.79,-0.87s60.42,-8 80.28,-2.54c0,0 20.7,4.65 25.77,11l0,0.05c0.68,0.71 8.52,9.54 10.95,35l12.3,67.96z"/>
  <path id="svg_283" opacity="0.1" d="m788.48,698.94s-8.45,7.18 -13.1,2.11c0,0 -11.41,-91.27 -25.77,-91.69l-49.44,-0.42s-5.91,2.53 -8.45,13.52l-32,91l-175.15,2.52l-13.38,-28l144.93,0.42l0,-0.06c0.78,-2.81 25,-89.28 41.27,-100l0,0a7,7 0 0 1 1.79,-0.87s60.42,-8 80.28,-2.54c0,0 20.7,4.65 25.77,11l0,0.05c0.68,0.71 8.52,9.54 10.95,35l12.3,67.96z"/>
  <path id="svg_284" fill="#6c63ff" d="m681.16,599.22c-4.23,8 -40.56,106.9 -40.56,106.9l-24.51,-17.75l0,-0.06c0.78,-2.81 25,-89.37 41.29,-100c10.6,1.76 26.65,5.46 23.78,10.91z"/>
  <path id="svg_285" fill="#6c63ff" d="m633.84,554.01l-19.86,65.06l-103.52,-3l0.84,9.72s81.13,11.83 115.77,-4.23l18.6,-59.43l163.37,0.84l-31.12,-7.32l-144.08,-1.64z"/>
  <path id="svg_286" opacity="0.1" fill="#fff" d="m633.84,554.01l-19.86,65.06l-103.52,-3l0.84,9.72s81.13,11.83 115.77,-4.23l18.6,-59.43l163.37,0.84l-31.12,-7.32l-144.08,-1.64z"/>
  <path id="svg_287" opacity="0.1" d="m148.49,656.54s-55.49,27.89 -14.37,54.09l11,2.53s-40.28,-29 27,-56.62l-23.63,0z"/>
  <path id="svg_288" fill="#dce0ed" d="m150.18,656.54s-55.49,27.89 -14.37,54.09l11,2.53s-40.28,-29 27,-56.62l-23.63,0z"/>
  <ellipse id="svg_289" fill="#636780" ry="52.82" rx="30.84" cy="725.98" cx="724.25"/>
  <ellipse id="svg_290" opacity="0.1" ry="42.8" rx="22.42" cy="727.12" cx="723.21"/>
  <ellipse id="svg_291" fill="#f0f0f4" ry="42.8" rx="22.42" cy="725.43" cx="723.21"/>
  <ellipse id="svg_292" fill="#636780" ry="5.28" rx="2.65" cy="696.71" cx="727.28"/>
  <ellipse id="svg_293" fill="#636780" ry="5.28" rx="2.65" cy="742.93" cx="737.88"/>
  <ellipse id="svg_294" fill="#636780" ry="5.28" rx="2.65" cy="720.92" cx="709.3"/>
  <ellipse id="svg_295" fill="#636780" ry="5.28" rx="2.65" cy="751.73" cx="717.06"/>
  <ellipse id="svg_296" fill="#636780" ry="5.28" rx="2.65" cy="714.32" cx="741.66"/>
  <ellipse id="svg_297" fill="#636780" ry="12.54" rx="7.76" cy="727.08" cx="727.28"/>
  <path id="svg_298" opacity="0.1" d="m276.37,491.07s93.81,3.38 215.49,36.76l-215.49,-36.76z"/>
  <path id="svg_299" fill="#dce0ed" d="m723.92,326.84s-5.09,0.82 -2.44,7.54s3.09,10.19 3.09,10.19s5.1,2.65 4.89,-6.12s-5.54,-11.61 -5.54,-11.61z"/>
  <path id="svg_300" fill="#fec2be" d="m474.41,463.07l-0.06,0.08a9.54,9.54 0 0 0 -2,4.61c-0.82,5.34 -1.6,16.28 6.17,14.47a24,24 0 0 0 11.58,-6.29a9.49,9.49 0 0 0 2.57,-7l0,0a7.3,7.3 0 0 0 -3.21,-6.1l-2.89,-1.66a5,5 0 0 0 -2.7,-0.7l-5,0.18a6.24,6.24 0 0 0 -4.46,2.41z"/>
  <path id="svg_301" fill="#6c63ff" d="m530.57,371.57l-14.93,74.18l-10.57,22.32l7,13l15.5,-36.5s17,-53.5 17,-55s-14,-18 -14,-18z"/>
 </g>
</svg>